<svg 
 xmlns="http://www.w3.org/2000/svg"
 xmlns:xlink="http://www.w3.org/1999/xlink"
 width="144px" height="33px">
<defs>
<filter filterUnits="userSpaceOnUse" id="Filter_0" x="33px" y="2px" width="111px" height="29px"  >
    <feOffset in="SourceAlpha" dx="0" dy="1" />
    <feGaussianBlur result="blurOut" stdDeviation="0" />
    <feFlood flood-color="rgb(111, 81, 28)" result="floodOut" />
    <feComposite operator="atop" in="floodOut" in2="blurOut" />
    <feComponentTransfer><feFuncA type="linear" slope="1"/></feComponentTransfer>
    <feMerge>
    <feMergeNode/>
    <feMergeNode in="SourceGraphic"/>
  </feMerge>
</filter>
<filter id="Filter_1">
    <feOffset in="SourceAlpha" dx="0" dy="1" />
    <feGaussianBlur result="blurOut" stdDeviation="0" />
    <feFlood flood-color="rgb(245, 210, 149)" result="floodOut" />
    <feComposite operator="out" in="floodOut" in2="blurOut" result="compOut" />
    <feComposite operator="in" in="compOut" in2="SourceAlpha" />
    <feComponentTransfer><feFuncA type="linear" slope="1"/></feComponentTransfer>
    <feBlend mode="normal" in2="SourceGraphic" />
</filter>
<linearGradient id="PSgrad_0" x1="0%" x2="0%" y1="100%" y2="0%">
  <stop offset="0%" stop-color="rgb(0,0,0)" stop-opacity="0.17" />
  <stop offset="100%" stop-color="rgb(255,255,255)" stop-opacity="0.17" />
</linearGradient>
<filter filterUnits="userSpaceOnUse" id="Filter_2" x="0px" y="0px" width="28px" height="33px"  >
    <feOffset in="SourceAlpha" dx="0" dy="1" />
    <feGaussianBlur result="blurOut" stdDeviation="0" />
    <feFlood flood-color="rgb(111, 81, 28)" result="floodOut" />
    <feComposite operator="atop" in="floodOut" in2="blurOut" />
    <feComponentTransfer><feFuncA type="linear" slope="1"/></feComponentTransfer>
    <feMerge>
    <feMergeNode/>
    <feMergeNode in="SourceGraphic"/>
  </feMerge>
</filter>
<filter id="Filter_3">
    <feOffset in="SourceAlpha" dx="0" dy="1" />
    <feGaussianBlur result="blurOut" stdDeviation="0" />
    <feFlood flood-color="rgb(245, 210, 149)" result="floodOut" />
    <feComposite operator="out" in="floodOut" in2="blurOut" result="compOut" />
    <feComposite operator="in" in="compOut" in2="SourceAlpha" />
    <feComponentTransfer><feFuncA type="linear" slope="1"/></feComponentTransfer>
    <feBlend mode="normal" in2="SourceGraphic" />
</filter>

</defs>
<g filter="url(#Filter_0)">
<g filter="url(#Filter_1)">
<path fill-rule="evenodd"  fill="rgb(187, 156, 102)"
 d="M143.718,21.758 C143.543,21.741 143.380,21.839 143.231,22.053 C143.081,22.267 142.963,22.437 142.875,22.562 C142.418,23.187 141.966,23.830 141.519,24.490 C141.071,25.151 140.574,25.768 140.030,26.340 C139.907,26.464 139.770,26.602 139.621,26.754 C139.472,26.907 139.309,27.040 139.134,27.156 C138.958,27.272 138.778,27.362 138.593,27.424 C138.409,27.487 138.220,27.491 138.027,27.437 C137.834,27.384 137.733,27.241 137.724,27.009 C137.715,26.777 137.746,26.518 137.816,26.232 C137.886,25.946 137.975,25.674 138.080,25.415 C138.185,25.156 138.264,24.982 138.317,24.892 C138.457,24.571 138.611,24.250 138.778,23.928 C138.945,23.607 139.125,23.285 139.318,22.964 C139.933,21.892 140.627,20.830 141.400,19.776 C141.593,19.526 141.786,19.281 141.980,19.039 C142.173,18.798 142.375,18.553 142.586,18.303 C142.726,18.124 142.902,17.923 143.113,17.700 C143.323,17.477 143.438,17.240 143.455,16.990 C143.472,16.740 143.393,16.580 143.218,16.508 C143.042,16.437 142.858,16.427 142.664,16.480 C141.997,16.678 141.338,16.811 140.688,16.883 C140.186,16.938 139.694,16.848 139.212,16.615 C138.761,16.364 138.379,15.772 137.891,16.487 C137.810,16.584 137.732,16.697 137.658,16.829 C137.561,16.993 137.434,17.396 137.313,17.853 C137.312,17.855 137.311,17.857 137.311,17.859 C136.507,20.441 130.934,27.893 128.436,27.893 C127.929,27.893 127.556,27.704 127.281,27.406 C127.215,27.326 127.154,27.241 127.105,27.142 C126.991,26.911 126.929,26.656 126.921,26.379 C126.911,26.103 126.951,25.822 127.039,25.536 C127.162,25.089 127.316,24.728 127.501,24.450 C127.685,24.174 127.900,23.946 128.146,23.768 C128.392,23.589 128.677,23.438 129.002,23.312 C129.327,23.187 129.692,23.044 130.096,22.883 C130.447,22.741 130.851,22.562 131.308,22.347 C131.765,22.133 132.217,21.879 132.665,21.584 C133.113,21.290 133.534,20.968 133.930,20.620 C134.325,20.271 134.641,19.896 134.879,19.494 C135.116,19.093 135.251,18.664 135.287,18.209 C135.322,17.754 135.208,17.285 134.944,16.802 C134.698,16.338 134.162,16.151 133.337,16.240 C132.581,16.329 131.839,16.530 131.110,16.843 C130.381,17.155 129.709,17.534 129.095,17.981 C128.093,18.696 127.237,19.531 126.526,20.486 C125.845,21.400 125.276,22.386 124.812,23.438 C124.638,23.683 124.460,23.919 124.273,24.142 C123.974,24.500 123.670,24.835 123.363,25.147 C123.056,25.459 122.753,25.777 122.454,26.098 C122.155,26.401 121.857,26.700 121.558,26.996 C121.260,27.290 120.908,27.509 120.504,27.652 C120.363,27.687 120.228,27.696 120.096,27.678 C119.965,27.661 119.898,27.563 119.898,27.384 C119.916,27.170 119.969,26.955 120.056,26.741 C120.197,26.348 120.355,25.969 120.531,25.602 C120.706,25.237 120.900,24.875 121.110,24.518 C121.620,23.607 122.121,22.692 122.612,21.772 C123.104,20.852 123.631,19.937 124.193,19.026 C124.755,18.133 125.295,17.236 125.814,16.334 C126.332,15.432 126.837,14.508 127.329,13.561 C127.628,13.026 127.926,12.489 128.225,11.954 C128.523,11.418 128.848,10.900 129.200,10.400 C129.358,10.186 129.516,9.963 129.674,9.730 C129.832,9.498 129.977,9.253 130.109,8.993 C130.241,8.735 130.342,8.471 130.412,8.203 C130.482,7.936 130.491,7.667 130.438,7.400 C130.368,7.024 130.210,6.846 129.964,6.864 C129.718,6.882 129.463,6.917 129.200,6.971 C129.042,7.007 128.866,7.016 128.673,6.998 C128.479,6.980 128.282,6.976 128.080,6.984 C127.878,6.994 127.689,7.021 127.514,7.065 C127.338,7.110 127.188,7.203 127.066,7.346 C126.977,7.453 126.938,7.583 126.947,7.735 C126.956,7.887 126.951,8.025 126.934,8.150 C126.898,8.329 126.859,8.494 126.815,8.645 C126.771,8.797 126.714,8.945 126.644,9.088 C126.503,9.409 126.341,9.713 126.156,9.998 C125.972,10.284 125.792,10.579 125.616,10.882 C125.282,11.454 124.953,12.030 124.628,12.610 C124.303,13.190 123.983,13.767 123.666,14.338 C123.473,14.695 123.280,15.057 123.087,15.423 C122.893,15.789 122.674,16.133 122.428,16.454 C122.287,16.633 122.173,16.762 122.085,16.843 C121.998,16.923 121.910,16.963 121.822,16.963 C121.734,16.963 121.637,16.927 121.532,16.856 C121.427,16.785 121.295,16.695 121.137,16.588 C120.803,16.356 120.430,16.244 120.017,16.253 C119.604,16.263 119.191,16.334 118.778,16.468 C118.366,16.602 117.966,16.776 117.579,16.990 C117.193,17.204 116.859,17.410 116.578,17.606 C115.630,18.267 114.721,19.044 113.851,19.937 C113.114,20.694 112.494,21.504 111.978,22.364 C111.918,22.461 111.870,22.535 111.835,22.588 C111.589,22.982 111.326,23.357 111.045,23.714 C110.764,24.072 110.474,24.428 110.175,24.785 C109.824,25.196 109.473,25.589 109.121,25.965 C108.770,26.340 108.401,26.714 108.015,27.089 C107.944,27.142 107.847,27.223 107.725,27.330 C107.602,27.437 107.470,27.540 107.330,27.638 C107.188,27.737 107.048,27.808 106.908,27.852 C106.767,27.897 106.644,27.893 106.539,27.839 C106.398,27.768 106.328,27.661 106.328,27.518 C106.328,27.375 106.346,27.250 106.381,27.142 C106.521,26.518 106.767,25.928 107.119,25.375 C107.470,24.821 107.804,24.286 108.120,23.768 C108.278,23.518 108.427,23.268 108.568,23.017 C108.709,22.767 108.849,22.518 108.989,22.267 C109.481,21.410 109.964,20.558 110.439,19.709 C110.913,18.861 111.422,18.026 111.967,17.204 C112.002,17.151 112.046,17.079 112.099,16.990 C112.152,16.900 112.195,16.816 112.230,16.736 C112.266,16.655 112.274,16.571 112.257,16.480 C112.239,16.392 112.187,16.320 112.099,16.267 C111.958,16.177 111.818,16.164 111.677,16.227 C111.536,16.289 111.396,16.320 111.255,16.320 C110.957,16.338 110.645,16.338 110.320,16.320 C109.995,16.303 109.701,16.347 109.437,16.454 C109.227,16.544 109.069,16.678 108.963,16.856 C108.928,16.892 108.862,16.986 108.766,17.137 C108.669,17.289 108.629,17.383 108.647,17.418 C108.506,17.222 108.388,17.017 108.291,16.802 C108.195,16.588 108.023,16.445 107.778,16.374 C107.619,16.320 107.457,16.284 107.290,16.267 C107.123,16.249 106.960,16.231 106.803,16.213 C106.451,16.213 106.113,16.276 105.788,16.401 C105.463,16.526 105.142,16.651 104.826,16.776 C104.440,16.918 104.075,17.088 103.733,17.285 C103.390,17.481 103.052,17.686 102.718,17.901 C102.490,18.062 102.270,18.222 102.060,18.383 C101.849,18.544 101.647,18.714 101.454,18.892 C100.750,19.517 100.127,20.195 99.582,20.928 C99.267,21.352 98.967,21.792 98.675,22.240 C98.587,22.365 98.509,22.478 98.450,22.562 C97.993,23.187 97.541,23.830 97.093,24.490 C96.645,25.151 96.148,25.768 95.604,26.340 C95.481,26.464 95.345,26.602 95.196,26.754 C95.046,26.907 94.883,27.040 94.708,27.156 C94.532,27.272 94.352,27.362 94.168,27.424 C93.984,27.487 93.795,27.491 93.601,27.437 C93.408,27.384 93.307,27.241 93.298,27.009 C93.290,26.777 93.321,26.518 93.391,26.232 C93.461,25.946 93.549,25.674 93.654,25.415 C93.760,25.156 93.839,24.982 93.891,24.892 C94.032,24.571 94.185,24.250 94.352,23.928 C94.519,23.607 94.699,23.285 94.893,22.964 C95.507,21.892 96.201,20.830 96.975,19.776 C97.168,19.526 97.361,19.281 97.554,19.039 C97.747,18.798 97.949,18.553 98.160,18.303 C98.300,18.124 98.476,17.923 98.687,17.700 C98.898,17.477 99.012,17.240 99.030,16.990 C99.047,16.740 98.968,16.580 98.793,16.508 C98.617,16.437 98.432,16.427 98.239,16.480 C97.572,16.678 96.912,16.811 96.263,16.883 C95.760,16.938 95.268,16.848 94.787,16.615 C94.335,16.364 93.953,15.772 93.466,16.487 C93.385,16.584 93.307,16.697 93.233,16.829 C93.135,16.993 93.008,17.396 92.887,17.853 C92.887,17.855 92.886,17.857 92.885,17.859 C92.081,20.441 87.299,27.410 84.801,27.410 C84.678,27.410 84.562,27.398 84.451,27.379 C84.368,27.356 84.290,27.324 84.221,27.277 C84.063,27.170 83.949,27.009 83.879,26.794 C83.808,26.580 83.817,26.322 83.905,26.017 C83.993,25.625 84.133,25.250 84.327,24.892 C84.520,24.535 84.730,24.187 84.959,23.848 C85.855,22.526 86.707,21.195 87.515,19.857 C88.322,18.517 89.139,17.168 89.965,15.811 C90.141,15.508 90.334,15.244 90.545,15.021 C90.756,14.798 91.046,14.686 91.415,14.686 C91.678,14.669 91.963,14.682 92.271,14.726 C92.578,14.771 92.855,14.722 93.101,14.579 C93.224,14.508 93.329,14.364 93.417,14.150 C93.505,13.937 93.487,13.775 93.364,13.668 C93.259,13.597 93.131,13.557 92.983,13.547 C92.833,13.539 92.675,13.539 92.508,13.547 C92.341,13.557 92.179,13.565 92.021,13.574 C91.862,13.583 91.731,13.571 91.625,13.534 C91.766,13.035 92.003,12.556 92.337,12.101 C92.670,11.646 92.960,11.204 93.207,10.775 C93.434,10.383 93.667,9.998 93.905,9.623 C94.142,9.248 94.330,8.856 94.471,8.444 C94.541,8.266 94.616,8.065 94.695,7.842 C94.774,7.619 94.769,7.418 94.682,7.239 C94.541,6.989 94.339,6.869 94.076,6.877 C93.812,6.887 93.575,6.909 93.364,6.944 C93.189,6.980 92.996,6.989 92.785,6.971 C92.574,6.953 92.363,6.944 92.152,6.944 C91.942,6.944 91.739,6.962 91.546,6.998 C91.353,7.034 91.186,7.105 91.046,7.212 C90.922,7.319 90.822,7.458 90.742,7.628 C90.664,7.797 90.593,7.976 90.532,8.163 C90.470,8.351 90.413,8.538 90.360,8.726 C90.308,8.913 90.255,9.079 90.202,9.222 C90.044,9.597 89.873,9.963 89.689,10.319 C89.504,10.677 89.315,11.035 89.122,11.391 C89.017,11.588 88.902,11.798 88.779,12.021 C88.656,12.244 88.516,12.459 88.358,12.664 C88.200,12.869 88.024,13.044 87.831,13.186 C87.638,13.329 87.418,13.418 87.172,13.455 C87.049,13.472 86.887,13.467 86.685,13.440 C86.483,13.414 86.280,13.405 86.079,13.414 C85.876,13.423 85.692,13.464 85.525,13.534 C85.358,13.606 85.257,13.740 85.222,13.937 C85.187,14.150 85.240,14.294 85.381,14.364 C85.521,14.436 85.688,14.477 85.881,14.485 C86.074,14.494 86.276,14.503 86.487,14.512 C86.698,14.521 86.856,14.570 86.961,14.659 C86.838,14.713 86.746,14.812 86.685,14.954 C86.623,15.097 86.566,15.222 86.513,15.329 C86.355,15.615 86.145,15.918 85.881,16.240 C85.038,17.401 84.234,18.597 83.470,19.830 C82.890,20.765 82.347,21.714 81.822,22.671 C81.814,22.678 81.804,22.689 81.796,22.696 C81.498,23.035 81.238,23.401 81.019,23.794 C80.799,24.187 80.549,24.562 80.268,24.920 C80.022,25.258 79.767,25.589 79.504,25.910 C79.240,26.232 78.942,26.527 78.608,26.794 C78.362,26.991 78.116,27.174 77.870,27.344 C77.624,27.513 77.343,27.607 77.027,27.625 C76.711,27.661 76.474,27.558 76.316,27.317 C76.158,27.076 76.035,26.821 75.947,26.553 C75.841,26.303 75.784,26.027 75.775,25.723 C75.766,25.419 75.753,25.125 75.736,24.839 C75.736,24.428 75.745,24.058 75.762,23.727 C75.780,23.397 75.920,23.062 76.184,22.722 C76.641,22.116 77.119,21.500 77.620,20.874 C78.121,20.249 78.705,19.749 79.372,19.374 C79.530,19.303 79.697,19.231 79.873,19.160 C80.048,19.088 80.224,19.039 80.400,19.012 C80.575,18.986 80.747,18.999 80.914,19.053 C81.081,19.106 81.234,19.213 81.375,19.374 C81.515,19.571 81.652,19.665 81.783,19.656 C81.915,19.646 82.069,19.571 82.245,19.428 C82.385,19.303 82.539,19.111 82.706,18.852 C82.872,18.593 83.004,18.312 83.101,18.008 C83.197,17.704 83.241,17.415 83.233,17.137 C83.224,16.860 83.114,16.642 82.903,16.480 C82.657,16.284 82.372,16.196 82.047,16.213 C81.722,16.231 81.436,16.284 81.190,16.374 C80.804,16.517 80.435,16.740 80.084,17.043 C79.469,17.544 78.920,18.107 78.437,18.731 C77.954,19.357 77.457,19.973 76.948,20.580 C76.825,20.723 76.706,20.857 76.592,20.981 C76.478,21.107 76.369,21.240 76.263,21.383 C76.158,21.526 76.087,21.580 76.052,21.544 C76.017,21.508 76.004,21.433 76.013,21.316 C76.022,21.200 76.039,21.070 76.065,20.928 C76.092,20.785 76.105,20.687 76.105,20.633 C76.175,20.169 76.289,19.713 76.448,19.267 C76.606,18.821 76.772,18.374 76.948,17.928 C76.965,17.857 77.001,17.763 77.053,17.647 C77.106,17.530 77.146,17.410 77.172,17.285 C77.199,17.159 77.207,17.043 77.199,16.936 C77.189,16.829 77.133,16.749 77.027,16.695 C76.922,16.624 76.799,16.602 76.658,16.628 C76.517,16.655 76.395,16.678 76.289,16.695 C76.096,16.731 75.903,16.876 75.710,16.893 C75.516,16.911 75.323,17.036 75.130,17.036 C74.989,17.036 74.836,17.036 74.669,17.036 C74.502,17.036 74.366,16.965 74.260,17.054 C74.225,17.090 74.203,17.089 74.194,17.169 C74.186,17.249 74.164,17.287 74.129,17.341 C73.988,17.680 73.821,17.996 73.628,18.317 C73.434,18.639 73.242,18.944 73.048,19.248 C72.855,19.587 72.653,19.918 72.442,20.248 C72.231,20.579 72.011,20.903 71.784,21.224 C71.643,21.421 71.489,21.608 71.323,21.786 C71.155,21.965 71.019,22.170 70.914,22.402 C70.912,22.406 70.911,22.414 70.910,22.418 C70.903,22.427 70.894,22.433 70.888,22.441 C70.799,22.557 70.738,22.652 70.703,22.722 C70.404,23.223 70.088,23.697 69.755,24.142 C69.421,24.589 69.070,25.044 68.700,25.509 C68.560,25.669 68.428,25.822 68.306,25.965 C68.182,26.107 68.050,26.258 67.910,26.419 C67.752,26.563 67.602,26.714 67.462,26.874 C67.321,27.036 67.163,27.187 66.988,27.330 C66.847,27.437 66.689,27.558 66.514,27.692 C66.338,27.826 66.153,27.867 65.960,27.812 C65.573,27.741 65.556,27.232 65.907,26.285 C66.171,25.571 66.504,24.902 66.909,24.276 C67.348,23.598 67.756,22.893 68.134,22.160 C68.512,21.429 68.929,20.723 69.386,20.044 C69.649,19.651 69.921,19.213 70.202,18.731 C70.325,18.517 70.453,18.303 70.585,18.089 C70.716,17.874 70.809,17.651 70.861,17.418 C70.896,17.311 70.931,17.186 70.967,17.043 C71.002,16.900 71.019,16.771 71.019,16.655 C71.019,16.539 70.989,16.441 70.927,16.361 C70.866,16.280 70.747,16.240 70.572,16.240 C70.396,16.240 70.224,16.253 70.058,16.280 C69.891,16.307 69.719,16.311 69.544,16.293 C69.386,16.276 69.227,16.263 69.070,16.253 C68.911,16.244 68.753,16.258 68.595,16.293 C68.367,16.329 68.164,16.383 67.989,16.454 C67.866,16.526 67.787,16.597 67.752,16.669 C67.716,16.740 67.673,16.838 67.620,16.963 C67.602,16.999 67.572,17.070 67.528,17.177 C67.484,17.285 67.444,17.401 67.409,17.526 C67.163,18.312 66.830,19.057 66.408,19.762 C65.987,20.468 65.565,21.160 65.143,21.839 C64.845,22.357 64.546,22.821 64.248,23.231 C64.019,23.553 63.791,23.875 63.562,24.196 C63.334,24.518 63.097,24.830 62.851,25.133 C62.710,25.312 62.578,25.495 62.456,25.683 C62.333,25.870 62.192,26.044 62.034,26.205 C61.929,26.312 61.762,26.491 61.533,26.741 C61.305,26.991 61.050,27.223 60.769,27.437 C60.488,27.652 60.220,27.804 59.966,27.893 C59.711,27.983 59.504,27.902 59.346,27.652 C59.223,27.456 59.215,27.214 59.320,26.928 C59.426,26.643 59.522,26.401 59.610,26.205 C59.856,25.705 60.124,25.227 60.414,24.772 C60.704,24.316 60.998,23.857 61.296,23.392 C61.595,22.928 61.872,22.464 62.126,22.000 C62.381,21.535 62.649,21.070 62.930,20.606 C63.176,20.195 63.421,19.781 63.668,19.361 C63.914,18.942 64.124,18.499 64.300,18.035 C64.370,17.838 64.445,17.597 64.524,17.311 C64.603,17.026 64.599,16.785 64.511,16.588 C64.476,16.480 64.401,16.410 64.287,16.374 C64.172,16.338 64.045,16.325 63.905,16.334 C63.764,16.343 63.624,16.361 63.483,16.387 C63.342,16.414 63.237,16.427 63.167,16.427 C62.938,16.427 62.714,16.410 62.495,16.374 C62.275,16.338 62.051,16.347 61.823,16.401 C61.524,16.472 61.371,16.615 61.362,16.829 C61.353,17.043 61.322,17.276 61.270,17.526 C61.235,17.704 61.186,17.870 61.125,18.021 C61.063,18.173 60.988,18.329 60.901,18.490 C60.708,18.901 60.493,19.294 60.255,19.669 C60.018,20.044 59.785,20.419 59.557,20.794 C59.311,21.223 59.056,21.647 58.793,22.066 C58.568,22.425 58.353,22.779 58.140,23.131 C58.155,23.048 58.174,22.967 58.186,22.883 C58.222,22.634 58.243,22.294 58.253,21.865 C58.261,21.437 58.235,21.009 58.173,20.580 C58.112,20.151 57.993,19.767 57.818,19.428 C57.642,19.088 57.387,18.883 57.054,18.811 C56.790,18.740 56.623,18.811 56.553,19.026 C56.483,19.241 56.465,19.437 56.500,19.615 C56.606,20.240 56.662,20.825 56.671,21.370 C56.680,21.915 56.588,22.500 56.395,23.124 C56.254,23.571 56.087,24.045 55.894,24.544 C55.701,25.044 55.468,25.513 55.196,25.950 C54.923,26.388 54.599,26.768 54.221,27.089 C53.843,27.410 53.391,27.616 52.864,27.705 C52.407,27.777 51.955,27.782 51.507,27.718 C51.059,27.656 50.615,27.558 50.176,27.424 C49.737,27.290 49.302,27.138 48.872,26.969 C48.441,26.799 48.016,26.643 47.594,26.500 C47.506,26.464 47.387,26.433 47.238,26.406 C47.089,26.379 46.944,26.344 46.803,26.299 C46.663,26.255 46.540,26.196 46.435,26.125 C46.329,26.054 46.285,25.946 46.303,25.803 C46.320,25.625 46.426,25.455 46.619,25.295 C46.812,25.133 46.970,24.991 47.093,24.865 C47.392,24.562 47.668,24.232 47.923,23.875 C48.178,23.518 48.428,23.160 48.674,22.803 C49.078,22.231 49.465,21.642 49.834,21.035 C50.203,20.428 50.536,19.794 50.835,19.133 C50.941,18.883 51.037,18.624 51.125,18.356 C51.212,18.089 51.388,17.883 51.652,17.740 C52.109,17.490 52.587,17.249 53.088,17.017 C53.589,16.785 54.076,16.544 54.550,16.293 C55.552,15.794 56.504,15.191 57.409,14.485 C58.314,13.780 59.170,13.035 59.978,12.249 C60.382,11.838 60.769,11.418 61.138,10.990 C61.507,10.561 61.858,10.114 62.192,9.650 C62.438,9.346 62.666,9.034 62.877,8.713 C63.088,8.391 63.281,8.061 63.457,7.721 C63.650,7.329 63.808,6.864 63.931,6.328 C64.053,5.793 64.089,5.279 64.036,4.788 C63.983,4.297 63.812,3.863 63.522,3.489 C63.232,3.114 62.789,2.891 62.192,2.819 C61.278,2.730 60.352,2.869 59.412,3.234 C58.472,3.601 57.633,4.034 56.895,4.533 C55.894,5.194 54.963,5.979 54.102,6.891 C53.241,7.802 52.460,8.748 51.757,9.730 C51.318,10.319 50.914,10.927 50.545,11.552 C50.176,12.177 49.816,12.811 49.465,13.455 C49.289,13.775 49.122,14.097 48.964,14.419 C48.806,14.739 48.648,15.061 48.490,15.383 C48.367,15.633 48.239,15.887 48.108,16.146 C47.976,16.406 47.822,16.624 47.647,16.802 C47.471,16.981 47.260,17.110 47.014,17.191 C46.768,17.271 46.478,17.267 46.145,17.177 C45.424,16.981 44.810,16.659 44.300,16.213 C43.790,15.767 43.395,15.244 43.115,14.646 C42.833,14.048 42.662,13.405 42.601,12.717 C42.539,12.030 42.596,11.338 42.772,10.641 C42.912,10.035 43.145,9.449 43.470,8.887 C43.795,8.324 44.190,7.828 44.656,7.400 C45.121,6.971 45.644,6.627 46.224,6.369 C46.803,6.110 47.418,5.979 48.068,5.979 C48.191,5.979 48.398,6.011 48.688,6.074 C48.977,6.136 49.263,6.172 49.544,6.181 C49.825,6.190 50.058,6.154 50.242,6.074 C50.427,5.994 50.475,5.802 50.387,5.498 C50.299,5.230 50.141,5.047 49.913,4.948 C49.684,4.851 49.430,4.793 49.149,4.774 C48.867,4.757 48.586,4.766 48.305,4.801 C48.024,4.838 47.796,4.864 47.620,4.882 C46.672,5.025 45.767,5.311 44.906,5.739 C44.168,6.114 43.479,6.574 42.838,7.119 C42.196,7.663 41.647,8.275 41.191,8.953 C40.840,9.472 40.532,10.057 40.269,10.709 C40.005,11.360 39.874,12.007 39.874,12.650 C39.874,13.490 39.992,14.284 40.229,15.034 C40.466,15.784 40.910,16.445 41.560,17.017 C41.911,17.338 42.306,17.606 42.745,17.820 C43.185,18.035 43.642,18.205 44.116,18.329 C44.555,18.436 44.998,18.486 45.447,18.477 C45.895,18.468 46.329,18.508 46.751,18.597 C46.768,18.597 46.716,18.736 46.593,19.012 C46.470,19.290 46.329,19.598 46.171,19.937 C46.013,20.276 45.864,20.598 45.723,20.901 C45.582,21.205 45.503,21.383 45.486,21.437 C45.205,22.008 44.911,22.575 44.603,23.138 C44.296,23.700 43.914,24.214 43.457,24.678 C43.246,24.892 43.022,24.995 42.785,24.986 C42.548,24.977 42.288,24.946 42.008,24.892 C41.376,24.785 40.717,24.732 40.032,24.732 C39.346,24.732 38.688,24.776 38.055,24.865 C37.651,24.920 37.260,24.964 36.883,25.000 C36.505,25.036 36.114,25.125 35.710,25.268 C35.359,25.393 35.020,25.554 34.696,25.750 C34.370,25.946 34.107,26.178 33.905,26.446 C33.703,26.714 33.589,27.009 33.563,27.330 C33.536,27.652 33.655,28.009 33.918,28.402 C34.252,28.884 34.678,29.183 35.196,29.299 C35.714,29.416 36.237,29.500 36.764,29.554 C37.239,29.589 37.695,29.594 38.134,29.567 C38.573,29.540 39.021,29.482 39.478,29.393 C39.970,29.286 40.449,29.161 40.914,29.018 C41.380,28.876 41.832,28.696 42.271,28.482 C42.675,28.286 43.057,28.134 43.417,28.026 C43.777,27.919 44.186,27.938 44.643,28.081 C45.205,28.277 45.745,28.482 46.263,28.696 C46.781,28.911 47.330,29.063 47.910,29.152 C48.367,29.223 48.836,29.315 49.320,29.377 C49.803,29.440 50.282,29.495 50.756,29.495 L50.782,29.495 C51.784,29.495 52.745,29.221 53.668,28.828 C54.590,28.435 55.402,27.869 56.105,27.155 C56.216,27.033 56.318,26.900 56.421,26.773 C56.410,26.827 56.392,26.877 56.382,26.931 C56.303,27.360 56.316,27.797 56.422,28.243 C56.456,28.422 56.531,28.617 56.646,28.831 C56.760,29.045 56.896,29.197 57.054,29.286 C57.142,29.340 57.225,29.385 57.304,29.420 C57.383,29.456 57.467,29.491 57.554,29.527 C57.748,29.598 57.963,29.630 58.200,29.621 C58.437,29.611 58.652,29.589 58.846,29.554 C59.179,29.482 59.487,29.344 59.768,29.138 C60.049,28.933 60.321,28.733 60.585,28.536 C61.059,28.160 61.533,27.714 62.008,27.196 C62.166,27.053 62.319,26.897 62.469,26.727 C62.618,26.558 62.728,26.437 62.798,26.366 C62.956,26.170 63.044,26.084 63.062,26.112 C63.079,26.138 63.053,26.312 62.983,26.633 C62.894,26.973 62.846,27.366 62.838,27.812 C62.829,28.259 62.938,28.625 63.167,28.911 C63.413,29.232 63.747,29.429 64.168,29.500 C64.590,29.572 64.976,29.563 65.328,29.473 C65.855,29.331 66.338,29.072 66.777,28.696 C67.038,28.474 67.278,28.242 67.508,28.007 C67.507,28.019 67.503,28.029 67.502,28.040 C67.475,28.353 67.532,28.652 67.673,28.938 C67.866,29.277 68.173,29.436 68.595,29.525 C68.683,29.543 68.771,29.495 68.859,29.495 C68.947,29.495 69.034,29.495 69.122,29.495 C69.421,29.495 69.706,29.467 69.978,29.350 C70.251,29.235 70.510,29.116 70.756,28.936 C70.984,28.776 71.195,28.607 71.388,28.402 C71.581,28.196 71.774,27.993 71.968,27.778 C72.126,27.582 72.288,27.398 72.455,27.219 C72.622,27.041 72.785,26.855 72.943,26.659 C72.978,26.623 73.000,26.592 73.009,26.566 C73.018,26.539 73.039,26.544 73.075,26.580 C73.127,26.616 73.167,26.696 73.193,26.821 C73.219,26.946 73.242,27.035 73.259,27.089 C73.382,27.518 73.553,27.924 73.773,28.308 C73.993,28.692 74.304,29.000 74.708,29.232 C74.901,29.339 75.108,29.410 75.328,29.446 C75.547,29.482 75.762,29.482 75.973,29.446 C76.166,29.429 76.382,29.388 76.619,29.326 C76.856,29.263 77.071,29.170 77.264,29.045 C77.598,28.848 77.923,28.612 78.239,28.334 C78.555,28.058 78.836,27.759 79.082,27.437 C79.188,27.295 79.306,27.161 79.438,27.036 C79.570,26.911 79.697,26.777 79.820,26.633 C80.033,26.353 80.236,26.082 80.441,25.808 C80.397,26.010 80.359,26.214 80.334,26.419 C80.273,26.938 80.299,27.433 80.413,27.906 C80.502,28.272 80.685,28.592 80.957,28.867 C81.305,29.533 82.009,29.689 82.694,29.650 C83.051,29.679 83.402,29.643 83.747,29.527 C84.061,29.421 84.367,29.281 84.666,29.114 C89.359,26.775 92.309,20.115 93.003,19.342 C93.179,19.215 93.358,19.117 93.470,19.133 C93.645,19.169 93.812,19.231 93.971,19.321 C94.129,19.410 94.295,19.454 94.471,19.454 C94.524,19.454 94.599,19.446 94.695,19.428 C94.792,19.410 94.879,19.401 94.959,19.401 C95.038,19.401 95.099,19.414 95.143,19.441 C95.187,19.468 95.183,19.535 95.130,19.642 C95.077,19.785 94.941,19.937 94.722,20.098 C94.502,20.258 94.339,20.392 94.234,20.499 C93.619,21.125 93.004,21.785 92.390,22.482 C91.774,23.178 91.274,23.928 90.888,24.732 C90.747,25.000 90.615,25.286 90.492,25.589 C90.369,25.893 90.264,26.196 90.176,26.500 C90.088,26.804 90.035,27.112 90.018,27.424 C90.000,27.737 90.035,28.053 90.124,28.375 C90.194,28.643 90.312,28.862 90.479,29.031 C90.646,29.201 90.835,29.331 91.046,29.420 C91.256,29.510 91.489,29.563 91.744,29.580 C91.998,29.598 92.249,29.589 92.495,29.554 C93.215,29.410 93.852,29.112 94.405,28.656 C94.959,28.201 95.463,27.705 95.920,27.170 C96.131,26.919 96.342,26.656 96.553,26.379 C96.748,26.123 96.933,25.871 97.114,25.623 C97.065,25.848 97.027,26.069 97.000,26.285 C96.965,26.571 96.952,26.879 96.961,27.210 C96.969,27.540 97.018,27.857 97.106,28.160 C97.193,28.464 97.330,28.737 97.514,28.978 C97.699,29.219 97.949,29.393 98.265,29.500 L98.318,29.527 C98.722,29.634 99.143,29.630 99.582,29.513 C100.022,29.397 100.417,29.232 100.768,29.018 C101.454,28.625 102.068,28.134 102.613,27.544 C102.736,27.401 102.854,27.268 102.969,27.142 C103.083,27.018 103.210,26.893 103.351,26.768 C103.420,26.697 103.496,26.611 103.575,26.514 C103.654,26.415 103.737,26.357 103.825,26.340 C103.842,26.429 103.834,26.518 103.799,26.607 C103.763,26.697 103.728,26.786 103.693,26.874 C103.605,27.268 103.601,27.669 103.680,28.081 C103.759,28.491 103.948,28.840 104.247,29.125 C104.563,29.446 104.914,29.598 105.301,29.580 C105.687,29.563 106.073,29.460 106.460,29.272 C106.846,29.085 107.211,28.844 107.554,28.549 C107.896,28.254 108.181,27.983 108.410,27.732 C108.743,27.375 109.073,27.013 109.398,26.647 C109.723,26.281 110.044,25.910 110.360,25.536 C110.496,25.379 110.629,25.222 110.757,25.066 C110.590,25.582 110.470,26.099 110.399,26.621 C110.303,27.326 110.369,27.964 110.597,28.536 C110.825,29.107 111.326,29.465 112.099,29.607 C112.450,29.643 112.775,29.634 113.074,29.580 C113.495,29.510 113.878,29.379 114.220,29.192 C114.562,29.005 114.887,28.781 115.195,28.523 C115.502,28.264 115.792,27.986 116.064,27.692 C116.337,27.397 116.605,27.098 116.868,26.794 C116.956,26.705 117.035,26.621 117.105,26.540 C117.175,26.459 117.219,26.401 117.237,26.366 C117.272,26.295 117.316,26.258 117.369,26.258 C117.333,26.527 117.307,26.741 117.290,26.902 C117.272,27.062 117.254,27.219 117.237,27.371 C117.219,27.523 117.211,27.616 117.211,27.652 C117.211,27.902 117.246,28.152 117.316,28.402 C117.386,28.652 117.509,28.866 117.685,29.045 C117.931,29.296 118.229,29.429 118.581,29.446 C118.932,29.465 119.257,29.446 119.556,29.393 C119.819,29.339 120.061,29.255 120.280,29.138 C120.500,29.022 120.706,28.876 120.900,28.696 C121.708,28.000 122.481,27.254 123.219,26.459 C123.511,26.145 123.791,25.821 124.070,25.496 C123.987,25.853 123.935,26.210 123.917,26.566 C123.890,27.093 123.965,27.589 124.141,28.053 C124.316,28.518 124.659,28.902 125.168,29.205 C125.532,29.424 125.927,29.503 126.354,29.547 C126.754,29.642 127.201,29.885 127.605,29.495 C127.605,29.495 127.605,29.495 127.605,29.495 C127.606,29.495 127.606,29.495 127.607,29.495 C127.785,29.495 127.956,29.476 128.109,29.434 C128.156,29.422 128.203,29.432 128.250,29.418 C128.422,29.368 128.566,29.331 128.670,29.292 C128.688,29.285 128.707,29.287 128.726,29.279 C128.740,29.274 128.753,29.270 128.767,29.264 C128.821,29.243 128.852,29.230 128.852,29.230 C128.877,29.219 128.902,29.206 128.926,29.195 C129.549,28.921 130.121,28.580 130.636,28.160 C130.643,28.155 130.646,28.150 130.652,28.144 C134.438,25.312 136.815,20.025 137.429,19.342 C137.604,19.214 137.784,19.117 137.895,19.133 C138.071,19.169 138.238,19.231 138.396,19.321 C138.554,19.410 138.721,19.454 138.896,19.454 C138.949,19.454 139.024,19.446 139.120,19.428 C139.217,19.410 139.305,19.401 139.384,19.401 C139.463,19.401 139.524,19.414 139.568,19.441 C139.612,19.468 139.608,19.535 139.555,19.642 C139.503,19.785 139.366,19.937 139.147,20.098 C138.927,20.258 138.765,20.392 138.659,20.499 C138.044,21.125 137.430,21.785 136.815,22.482 C136.200,23.178 135.699,23.928 135.313,24.732 C135.172,25.000 135.040,25.286 134.918,25.589 C134.795,25.893 134.689,26.196 134.601,26.500 C134.513,26.804 134.461,27.112 134.444,27.424 C134.426,27.737 134.461,28.053 134.549,28.375 C134.619,28.643 134.738,28.862 134.905,29.031 C135.071,29.201 135.260,29.331 135.471,29.420 C135.682,29.510 135.914,29.563 136.169,29.580 C136.424,29.598 136.674,29.589 136.920,29.554 C137.641,29.410 138.277,29.112 138.831,28.656 C139.384,28.201 139.889,27.705 140.346,27.170 C140.557,26.919 140.767,26.656 140.978,26.379 C141.189,26.103 141.391,25.830 141.584,25.562 C141.830,25.258 142.076,24.950 142.322,24.638 C142.568,24.325 142.814,24.009 143.060,23.687 C143.113,23.634 143.213,23.509 143.363,23.312 C143.512,23.116 143.648,22.906 143.771,22.682 C143.894,22.460 143.969,22.254 143.995,22.066 C144.022,21.879 143.929,21.776 143.718,21.758 ZM128.581,21.892 C128.677,21.696 128.783,21.508 128.897,21.329 C129.011,21.151 129.086,21.035 129.121,20.981 C129.367,20.606 129.622,20.245 129.885,19.896 C130.149,19.548 130.421,19.196 130.702,18.838 C130.790,18.731 130.886,18.620 130.992,18.504 C131.097,18.388 131.202,18.267 131.308,18.142 C131.448,17.999 131.624,17.825 131.835,17.619 C132.046,17.415 132.256,17.285 132.467,17.231 C132.625,17.196 132.753,17.244 132.849,17.378 C132.946,17.512 132.985,17.651 132.968,17.794 C132.950,18.151 132.845,18.499 132.652,18.838 C132.458,19.178 132.256,19.482 132.046,19.749 C131.694,20.214 131.295,20.660 130.847,21.088 C130.399,21.517 129.920,21.883 129.411,22.187 C129.375,22.204 129.275,22.259 129.108,22.347 C128.940,22.437 128.787,22.500 128.647,22.535 C128.471,22.571 128.392,22.522 128.409,22.388 C128.427,22.254 128.484,22.089 128.581,21.892 ZM52.811,15.409 C53.145,14.785 53.466,14.150 53.773,13.507 C54.080,12.865 54.392,12.231 54.709,11.606 C55.077,10.855 55.463,10.137 55.868,9.449 C56.272,8.762 56.693,8.069 57.133,7.373 C57.484,6.820 57.853,6.275 58.239,5.739 C58.626,5.203 59.091,4.748 59.636,4.373 C59.741,4.301 59.921,4.190 60.176,4.038 C60.431,3.886 60.694,3.761 60.966,3.663 C61.239,3.564 61.489,3.524 61.717,3.542 C61.946,3.560 62.104,3.686 62.192,3.918 C62.314,4.238 62.341,4.600 62.271,5.002 C62.201,5.404 62.077,5.802 61.902,6.194 C61.726,6.587 61.533,6.962 61.322,7.319 C61.112,7.677 60.918,7.989 60.742,8.257 C60.268,8.990 59.750,9.708 59.188,10.413 C58.626,11.119 58.020,11.793 57.370,12.436 C56.720,13.079 56.039,13.673 55.328,14.217 C54.616,14.762 53.874,15.232 53.101,15.624 C52.960,15.695 52.855,15.727 52.785,15.717 C52.714,15.709 52.723,15.606 52.811,15.409 ZM40.585,27.142 C40.339,27.500 40.009,27.804 39.597,28.053 C39.184,28.303 38.740,28.473 38.266,28.563 C37.774,28.652 37.291,28.652 36.817,28.563 C36.343,28.473 35.938,28.250 35.605,27.893 C35.447,27.732 35.341,27.513 35.289,27.237 C35.236,26.960 35.280,26.723 35.420,26.527 C35.526,26.366 35.675,26.241 35.868,26.151 C36.061,26.062 36.268,26.000 36.488,25.965 C36.707,25.928 36.926,25.919 37.146,25.937 C37.366,25.955 37.563,25.973 37.739,25.991 C37.845,26.009 38.073,26.044 38.424,26.098 C38.775,26.151 39.131,26.223 39.491,26.312 C39.851,26.401 40.154,26.518 40.400,26.661 C40.646,26.804 40.707,26.964 40.585,27.142 ZM73.807,19.937 C73.807,19.973 73.735,20.008 73.718,20.044 C73.560,20.723 73.405,21.414 73.317,22.119 C73.229,22.825 73.169,23.536 73.169,24.250 C73.169,24.464 73.153,24.674 73.136,24.879 C73.118,25.084 73.043,25.286 72.921,25.482 C72.815,25.678 72.685,25.853 72.536,26.004 C72.387,26.156 72.241,26.303 72.101,26.446 C71.960,26.589 71.814,26.732 71.665,26.874 C71.516,27.018 71.353,27.152 71.178,27.277 C71.125,27.312 71.037,27.375 70.914,27.464 C70.791,27.554 70.668,27.625 70.545,27.678 C70.422,27.732 70.312,27.750 70.216,27.732 C70.119,27.714 70.062,27.625 70.045,27.464 C70.045,27.375 70.053,27.290 70.071,27.210 C70.088,27.129 70.088,27.045 70.071,26.955 C70.035,26.794 69.961,26.638 69.847,26.486 C69.732,26.334 69.587,26.250 69.412,26.232 C69.297,26.219 69.179,26.225 69.059,26.240 C69.084,26.210 69.111,26.182 69.135,26.151 C69.513,25.687 69.886,25.223 70.255,24.759 C70.448,24.526 70.628,24.303 70.795,24.089 C70.962,23.875 71.116,23.643 71.256,23.392 C71.309,23.321 71.375,23.231 71.454,23.124 C71.533,23.017 71.603,22.901 71.665,22.776 C71.683,22.738 71.696,22.703 71.710,22.665 C71.871,22.445 72.011,22.256 72.126,22.107 C72.301,21.875 72.459,21.642 72.601,21.410 C72.741,21.178 72.881,20.937 73.022,20.687 C73.110,20.544 73.265,20.388 73.362,20.218 C73.458,20.048 73.807,19.919 73.807,19.830 L73.807,19.937 ZM104.694,23.406 C104.185,24.147 103.649,24.875 103.087,25.589 C102.753,26.000 102.398,26.388 102.020,26.754 C101.642,27.120 101.216,27.420 100.742,27.652 C100.461,27.777 100.206,27.817 99.978,27.772 C99.749,27.728 99.565,27.554 99.425,27.250 C99.336,27.072 99.306,26.879 99.332,26.674 C99.359,26.469 99.407,26.258 99.477,26.044 C99.547,25.830 99.631,25.625 99.728,25.428 C99.824,25.232 99.908,25.053 99.978,24.892 C100.171,24.518 100.364,24.151 100.557,23.794 C100.750,23.438 100.961,23.089 101.190,22.750 C101.418,22.410 101.638,22.071 101.849,21.732 C102.060,21.392 102.288,21.062 102.534,20.740 C102.956,20.151 103.416,19.543 103.917,18.919 C104.418,18.293 104.984,17.803 105.617,17.445 C105.845,17.321 106.117,17.222 106.433,17.151 C106.750,17.079 107.004,17.168 107.198,17.418 C107.356,17.633 107.413,17.874 107.369,18.142 C107.325,18.409 107.268,18.660 107.198,18.892 C107.057,19.285 106.890,19.660 106.697,20.017 C106.504,20.374 106.310,20.732 106.117,21.088 C105.678,21.892 105.204,22.665 104.694,23.406 ZM119.279,20.901 C119.130,21.169 118.994,21.410 118.871,21.624 C118.467,22.374 118.018,23.089 117.527,23.768 C117.035,24.446 116.526,25.107 115.999,25.750 C115.612,26.215 115.212,26.608 114.800,27.045 C114.387,27.483 113.899,27.938 113.337,27.938 L113.311,27.938 C112.907,28.328 112.542,28.126 112.217,27.902 C111.892,27.679 111.756,27.356 111.809,26.873 C111.862,26.194 112.050,25.574 112.376,24.985 C112.700,24.395 113.047,23.850 113.416,23.331 C113.838,22.743 114.264,22.161 114.694,21.580 C115.124,21.001 115.586,20.435 116.078,19.881 C116.253,19.685 116.464,19.449 116.710,19.173 C116.956,18.896 117.219,18.633 117.500,18.383 C117.781,18.133 118.076,17.923 118.383,17.753 C118.691,17.584 118.994,17.508 119.292,17.526 C119.503,17.561 119.683,17.664 119.832,17.833 C119.982,18.004 120.065,18.187 120.083,18.383 C120.100,18.651 120.070,18.928 119.991,19.213 C119.912,19.499 119.810,19.785 119.688,20.071 C119.565,20.356 119.428,20.633 119.279,20.901 Z"/>
</g></g>
<path fill="url(#PSgrad_0)"
 d="M143.718,21.758 C143.543,21.741 143.380,21.839 143.231,22.053 C143.081,22.267 142.963,22.437 142.875,22.562 C142.418,23.187 141.966,23.830 141.519,24.490 C141.071,25.151 140.574,25.768 140.030,26.340 C139.907,26.464 139.770,26.602 139.621,26.754 C139.472,26.907 139.309,27.040 139.134,27.156 C138.958,27.272 138.778,27.362 138.593,27.424 C138.409,27.487 138.220,27.491 138.027,27.437 C137.834,27.384 137.733,27.241 137.724,27.009 C137.715,26.777 137.746,26.518 137.816,26.232 C137.886,25.946 137.975,25.674 138.080,25.415 C138.185,25.156 138.264,24.982 138.317,24.892 C138.457,24.571 138.611,24.250 138.778,23.928 C138.945,23.607 139.125,23.285 139.318,22.964 C139.933,21.892 140.627,20.830 141.400,19.776 C141.593,19.526 141.786,19.281 141.980,19.039 C142.173,18.798 142.375,18.553 142.586,18.303 C142.726,18.124 142.902,17.923 143.113,17.700 C143.323,17.477 143.438,17.240 143.455,16.990 C143.472,16.740 143.393,16.580 143.218,16.508 C143.042,16.437 142.858,16.427 142.664,16.480 C141.997,16.678 141.338,16.811 140.688,16.883 C140.186,16.938 139.694,16.848 139.212,16.615 C138.761,16.364 138.379,15.772 137.891,16.487 C137.810,16.584 137.732,16.697 137.658,16.829 C137.561,16.993 137.434,17.396 137.313,17.853 C137.312,17.855 137.311,17.857 137.311,17.859 C136.507,20.441 130.934,27.893 128.436,27.893 C127.929,27.893 127.556,27.704 127.281,27.406 C127.215,27.326 127.154,27.241 127.105,27.142 C126.991,26.911 126.929,26.656 126.921,26.379 C126.911,26.103 126.951,25.822 127.039,25.536 C127.162,25.089 127.316,24.728 127.501,24.450 C127.685,24.174 127.900,23.946 128.146,23.768 C128.392,23.589 128.677,23.438 129.002,23.312 C129.327,23.187 129.692,23.044 130.096,22.883 C130.447,22.741 130.851,22.562 131.308,22.347 C131.765,22.133 132.217,21.879 132.665,21.584 C133.113,21.290 133.534,20.968 133.930,20.620 C134.325,20.271 134.641,19.896 134.879,19.494 C135.116,19.093 135.251,18.664 135.287,18.209 C135.322,17.754 135.208,17.285 134.944,16.802 C134.698,16.338 134.162,16.151 133.337,16.240 C132.581,16.329 131.839,16.530 131.110,16.843 C130.381,17.155 129.709,17.534 129.095,17.981 C128.093,18.696 127.237,19.531 126.526,20.486 C125.845,21.400 125.276,22.386 124.812,23.438 C124.638,23.683 124.460,23.919 124.273,24.142 C123.974,24.500 123.670,24.835 123.363,25.147 C123.056,25.459 122.753,25.777 122.454,26.098 C122.155,26.401 121.857,26.700 121.558,26.996 C121.260,27.290 120.908,27.509 120.504,27.652 C120.363,27.687 120.228,27.696 120.096,27.678 C119.965,27.661 119.898,27.563 119.898,27.384 C119.916,27.170 119.969,26.955 120.056,26.741 C120.197,26.348 120.355,25.969 120.531,25.602 C120.706,25.237 120.900,24.875 121.110,24.518 C121.620,23.607 122.121,22.692 122.612,21.772 C123.104,20.852 123.631,19.937 124.193,19.026 C124.755,18.133 125.295,17.236 125.814,16.334 C126.332,15.432 126.837,14.508 127.329,13.561 C127.628,13.026 127.926,12.489 128.225,11.954 C128.523,11.418 128.848,10.900 129.200,10.400 C129.358,10.186 129.516,9.963 129.674,9.730 C129.832,9.498 129.977,9.253 130.109,8.993 C130.241,8.735 130.342,8.471 130.412,8.203 C130.482,7.936 130.491,7.667 130.438,7.400 C130.368,7.024 130.210,6.846 129.964,6.864 C129.718,6.882 129.463,6.917 129.200,6.971 C129.042,7.007 128.866,7.016 128.673,6.998 C128.479,6.980 128.282,6.976 128.080,6.984 C127.878,6.994 127.689,7.021 127.514,7.065 C127.338,7.110 127.188,7.203 127.066,7.346 C126.977,7.453 126.938,7.583 126.947,7.735 C126.956,7.887 126.951,8.025 126.934,8.150 C126.898,8.329 126.859,8.494 126.815,8.645 C126.771,8.797 126.714,8.945 126.644,9.088 C126.503,9.409 126.341,9.713 126.156,9.998 C125.972,10.284 125.792,10.579 125.616,10.882 C125.282,11.454 124.953,12.030 124.628,12.610 C124.303,13.190 123.983,13.767 123.666,14.338 C123.473,14.695 123.280,15.057 123.087,15.423 C122.893,15.789 122.674,16.133 122.428,16.454 C122.287,16.633 122.173,16.762 122.085,16.843 C121.998,16.923 121.910,16.963 121.822,16.963 C121.734,16.963 121.637,16.927 121.532,16.856 C121.427,16.785 121.295,16.695 121.137,16.588 C120.803,16.356 120.430,16.244 120.017,16.253 C119.604,16.263 119.191,16.334 118.778,16.468 C118.366,16.602 117.966,16.776 117.579,16.990 C117.193,17.204 116.859,17.410 116.578,17.606 C115.630,18.267 114.721,19.044 113.851,19.937 C113.114,20.694 112.494,21.504 111.978,22.364 C111.918,22.461 111.870,22.535 111.835,22.588 C111.589,22.982 111.326,23.357 111.045,23.714 C110.764,24.072 110.474,24.428 110.175,24.785 C109.824,25.196 109.473,25.589 109.121,25.965 C108.770,26.340 108.401,26.714 108.015,27.089 C107.944,27.142 107.847,27.223 107.725,27.330 C107.602,27.437 107.470,27.540 107.330,27.638 C107.188,27.737 107.048,27.808 106.908,27.852 C106.767,27.897 106.644,27.893 106.539,27.839 C106.398,27.768 106.328,27.661 106.328,27.518 C106.328,27.375 106.346,27.250 106.381,27.142 C106.521,26.518 106.767,25.928 107.119,25.375 C107.470,24.821 107.804,24.286 108.120,23.768 C108.278,23.518 108.427,23.268 108.568,23.017 C108.709,22.767 108.849,22.518 108.989,22.267 C109.481,21.410 109.964,20.558 110.439,19.709 C110.913,18.861 111.422,18.026 111.967,17.204 C112.002,17.151 112.046,17.079 112.099,16.990 C112.152,16.900 112.195,16.816 112.230,16.736 C112.266,16.655 112.274,16.571 112.257,16.480 C112.239,16.392 112.187,16.320 112.099,16.267 C111.958,16.177 111.818,16.164 111.677,16.227 C111.536,16.289 111.396,16.320 111.255,16.320 C110.957,16.338 110.645,16.338 110.320,16.320 C109.995,16.303 109.701,16.347 109.437,16.454 C109.227,16.544 109.069,16.678 108.963,16.856 C108.928,16.892 108.862,16.986 108.766,17.137 C108.669,17.289 108.629,17.383 108.647,17.418 C108.506,17.222 108.388,17.017 108.291,16.802 C108.195,16.588 108.023,16.445 107.778,16.374 C107.619,16.320 107.457,16.284 107.290,16.267 C107.123,16.249 106.960,16.231 106.803,16.213 C106.451,16.213 106.113,16.276 105.788,16.401 C105.463,16.526 105.142,16.651 104.826,16.776 C104.440,16.918 104.075,17.088 103.733,17.285 C103.390,17.481 103.052,17.686 102.718,17.901 C102.490,18.062 102.270,18.222 102.060,18.383 C101.849,18.544 101.647,18.714 101.454,18.892 C100.750,19.517 100.127,20.195 99.582,20.928 C99.267,21.352 98.967,21.792 98.675,22.240 C98.587,22.365 98.509,22.478 98.450,22.562 C97.993,23.187 97.541,23.830 97.093,24.490 C96.645,25.151 96.148,25.768 95.604,26.340 C95.481,26.464 95.345,26.602 95.196,26.754 C95.046,26.907 94.883,27.040 94.708,27.156 C94.532,27.272 94.352,27.362 94.168,27.424 C93.984,27.487 93.795,27.491 93.601,27.437 C93.408,27.384 93.307,27.241 93.298,27.009 C93.290,26.777 93.321,26.518 93.391,26.232 C93.461,25.946 93.549,25.674 93.654,25.415 C93.760,25.156 93.839,24.982 93.891,24.892 C94.032,24.571 94.185,24.250 94.352,23.928 C94.519,23.607 94.699,23.285 94.893,22.964 C95.507,21.892 96.201,20.830 96.975,19.776 C97.168,19.526 97.361,19.281 97.554,19.039 C97.747,18.798 97.949,18.553 98.160,18.303 C98.300,18.124 98.476,17.923 98.687,17.700 C98.898,17.477 99.012,17.240 99.030,16.990 C99.047,16.740 98.968,16.580 98.793,16.508 C98.617,16.437 98.432,16.427 98.239,16.480 C97.572,16.678 96.912,16.811 96.263,16.883 C95.760,16.938 95.268,16.848 94.787,16.615 C94.335,16.364 93.953,15.772 93.466,16.487 C93.385,16.584 93.307,16.697 93.233,16.829 C93.135,16.993 93.008,17.396 92.887,17.853 C92.887,17.855 92.886,17.857 92.885,17.859 C92.081,20.441 87.299,27.410 84.801,27.410 C84.678,27.410 84.562,27.398 84.451,27.379 C84.368,27.356 84.290,27.324 84.221,27.277 C84.063,27.170 83.949,27.009 83.879,26.794 C83.808,26.580 83.817,26.322 83.905,26.017 C83.993,25.625 84.133,25.250 84.327,24.892 C84.520,24.535 84.730,24.187 84.959,23.848 C85.855,22.526 86.707,21.195 87.515,19.857 C88.322,18.517 89.139,17.168 89.965,15.811 C90.141,15.508 90.334,15.244 90.545,15.021 C90.756,14.798 91.046,14.686 91.415,14.686 C91.678,14.669 91.963,14.682 92.271,14.726 C92.578,14.771 92.855,14.722 93.101,14.579 C93.224,14.508 93.329,14.364 93.417,14.150 C93.505,13.937 93.487,13.775 93.364,13.668 C93.259,13.597 93.131,13.557 92.983,13.547 C92.833,13.539 92.675,13.539 92.508,13.547 C92.341,13.557 92.179,13.565 92.021,13.574 C91.862,13.583 91.731,13.571 91.625,13.534 C91.766,13.035 92.003,12.556 92.337,12.101 C92.670,11.646 92.960,11.204 93.207,10.775 C93.434,10.383 93.667,9.998 93.905,9.623 C94.142,9.248 94.330,8.856 94.471,8.444 C94.541,8.266 94.616,8.065 94.695,7.842 C94.774,7.619 94.769,7.418 94.682,7.239 C94.541,6.989 94.339,6.869 94.076,6.877 C93.812,6.887 93.575,6.909 93.364,6.944 C93.189,6.980 92.996,6.989 92.785,6.971 C92.574,6.953 92.363,6.944 92.152,6.944 C91.942,6.944 91.739,6.962 91.546,6.998 C91.353,7.034 91.186,7.105 91.046,7.212 C90.922,7.319 90.822,7.458 90.742,7.628 C90.664,7.797 90.593,7.976 90.532,8.163 C90.470,8.351 90.413,8.538 90.360,8.726 C90.308,8.913 90.255,9.079 90.202,9.222 C90.044,9.597 89.873,9.963 89.689,10.319 C89.504,10.677 89.315,11.035 89.122,11.391 C89.017,11.588 88.902,11.798 88.779,12.021 C88.656,12.244 88.516,12.459 88.358,12.664 C88.200,12.869 88.024,13.044 87.831,13.186 C87.638,13.329 87.418,13.418 87.172,13.455 C87.049,13.472 86.887,13.467 86.685,13.440 C86.483,13.414 86.280,13.405 86.079,13.414 C85.876,13.423 85.692,13.464 85.525,13.534 C85.358,13.606 85.257,13.740 85.222,13.937 C85.187,14.150 85.240,14.294 85.381,14.364 C85.521,14.436 85.688,14.477 85.881,14.485 C86.074,14.494 86.276,14.503 86.487,14.512 C86.698,14.521 86.856,14.570 86.961,14.659 C86.838,14.713 86.746,14.812 86.685,14.954 C86.623,15.097 86.566,15.222 86.513,15.329 C86.355,15.615 86.145,15.918 85.881,16.240 C85.038,17.401 84.234,18.597 83.470,19.830 C82.890,20.765 82.347,21.714 81.822,22.671 C81.814,22.678 81.804,22.689 81.796,22.696 C81.498,23.035 81.238,23.401 81.019,23.794 C80.799,24.187 80.549,24.562 80.268,24.920 C80.022,25.258 79.767,25.589 79.504,25.910 C79.240,26.232 78.942,26.527 78.608,26.794 C78.362,26.991 78.116,27.174 77.870,27.344 C77.624,27.513 77.343,27.607 77.027,27.625 C76.711,27.661 76.474,27.558 76.316,27.317 C76.158,27.076 76.035,26.821 75.947,26.553 C75.841,26.303 75.784,26.027 75.775,25.723 C75.766,25.419 75.753,25.125 75.736,24.839 C75.736,24.428 75.745,24.058 75.762,23.727 C75.780,23.397 75.920,23.062 76.184,22.722 C76.641,22.116 77.119,21.500 77.620,20.874 C78.121,20.249 78.705,19.749 79.372,19.374 C79.530,19.303 79.697,19.231 79.873,19.160 C80.048,19.088 80.224,19.039 80.400,19.012 C80.575,18.986 80.747,18.999 80.914,19.053 C81.081,19.106 81.234,19.213 81.375,19.374 C81.515,19.571 81.652,19.665 81.783,19.656 C81.915,19.646 82.069,19.571 82.245,19.428 C82.385,19.303 82.539,19.111 82.706,18.852 C82.872,18.593 83.004,18.312 83.101,18.008 C83.197,17.704 83.241,17.415 83.233,17.137 C83.224,16.860 83.114,16.642 82.903,16.480 C82.657,16.284 82.372,16.196 82.047,16.213 C81.722,16.231 81.436,16.284 81.190,16.374 C80.804,16.517 80.435,16.740 80.084,17.043 C79.469,17.544 78.920,18.107 78.437,18.731 C77.954,19.357 77.457,19.973 76.948,20.580 C76.825,20.723 76.706,20.857 76.592,20.981 C76.478,21.107 76.369,21.240 76.263,21.383 C76.158,21.526 76.087,21.580 76.052,21.544 C76.017,21.508 76.004,21.433 76.013,21.316 C76.022,21.200 76.039,21.070 76.065,20.928 C76.092,20.785 76.105,20.687 76.105,20.633 C76.175,20.169 76.289,19.713 76.448,19.267 C76.606,18.821 76.772,18.374 76.948,17.928 C76.965,17.857 77.001,17.763 77.053,17.647 C77.106,17.530 77.146,17.410 77.172,17.285 C77.199,17.159 77.207,17.043 77.199,16.936 C77.189,16.829 77.133,16.749 77.027,16.695 C76.922,16.624 76.799,16.602 76.658,16.628 C76.517,16.655 76.395,16.678 76.289,16.695 C76.096,16.731 75.903,16.876 75.710,16.893 C75.516,16.911 75.323,17.036 75.130,17.036 C74.989,17.036 74.836,17.036 74.669,17.036 C74.502,17.036 74.366,16.965 74.260,17.054 C74.225,17.090 74.203,17.089 74.194,17.169 C74.186,17.249 74.164,17.287 74.129,17.341 C73.988,17.680 73.821,17.996 73.628,18.317 C73.434,18.639 73.242,18.944 73.048,19.248 C72.855,19.587 72.653,19.918 72.442,20.248 C72.231,20.579 72.011,20.903 71.784,21.224 C71.643,21.421 71.489,21.608 71.323,21.786 C71.155,21.965 71.019,22.170 70.914,22.402 C70.912,22.406 70.911,22.414 70.910,22.418 C70.903,22.427 70.894,22.433 70.888,22.441 C70.799,22.557 70.738,22.652 70.703,22.722 C70.404,23.223 70.088,23.697 69.755,24.142 C69.421,24.589 69.070,25.044 68.700,25.509 C68.560,25.669 68.428,25.822 68.306,25.965 C68.182,26.107 68.050,26.258 67.910,26.419 C67.752,26.563 67.602,26.714 67.462,26.874 C67.321,27.036 67.163,27.187 66.988,27.330 C66.847,27.437 66.689,27.558 66.514,27.692 C66.338,27.826 66.153,27.867 65.960,27.812 C65.573,27.741 65.556,27.232 65.907,26.285 C66.171,25.571 66.504,24.902 66.909,24.276 C67.348,23.598 67.756,22.893 68.134,22.160 C68.512,21.429 68.929,20.723 69.386,20.044 C69.649,19.651 69.921,19.213 70.202,18.731 C70.325,18.517 70.453,18.303 70.585,18.089 C70.716,17.874 70.809,17.651 70.861,17.418 C70.896,17.311 70.931,17.186 70.967,17.043 C71.002,16.900 71.019,16.771 71.019,16.655 C71.019,16.539 70.989,16.441 70.927,16.361 C70.866,16.280 70.747,16.240 70.572,16.240 C70.396,16.240 70.224,16.253 70.058,16.280 C69.891,16.307 69.719,16.311 69.544,16.293 C69.386,16.276 69.227,16.263 69.070,16.253 C68.911,16.244 68.753,16.258 68.595,16.293 C68.367,16.329 68.164,16.383 67.989,16.454 C67.866,16.526 67.787,16.597 67.752,16.669 C67.716,16.740 67.673,16.838 67.620,16.963 C67.602,16.999 67.572,17.070 67.528,17.177 C67.484,17.285 67.444,17.401 67.409,17.526 C67.163,18.312 66.830,19.057 66.408,19.762 C65.987,20.468 65.565,21.160 65.143,21.839 C64.845,22.357 64.546,22.821 64.248,23.231 C64.019,23.553 63.791,23.875 63.562,24.196 C63.334,24.518 63.097,24.830 62.851,25.133 C62.710,25.312 62.578,25.495 62.456,25.683 C62.333,25.870 62.192,26.044 62.034,26.205 C61.929,26.312 61.762,26.491 61.533,26.741 C61.305,26.991 61.050,27.223 60.769,27.437 C60.488,27.652 60.220,27.804 59.966,27.893 C59.711,27.983 59.504,27.902 59.346,27.652 C59.223,27.456 59.215,27.214 59.320,26.928 C59.426,26.643 59.522,26.401 59.610,26.205 C59.856,25.705 60.124,25.227 60.414,24.772 C60.704,24.316 60.998,23.857 61.296,23.392 C61.595,22.928 61.872,22.464 62.126,22.000 C62.381,21.535 62.649,21.070 62.930,20.606 C63.176,20.195 63.421,19.781 63.668,19.361 C63.914,18.942 64.124,18.499 64.300,18.035 C64.370,17.838 64.445,17.597 64.524,17.311 C64.603,17.026 64.599,16.785 64.511,16.588 C64.476,16.480 64.401,16.410 64.287,16.374 C64.172,16.338 64.045,16.325 63.905,16.334 C63.764,16.343 63.624,16.361 63.483,16.387 C63.342,16.414 63.237,16.427 63.167,16.427 C62.938,16.427 62.714,16.410 62.495,16.374 C62.275,16.338 62.051,16.347 61.823,16.401 C61.524,16.472 61.371,16.615 61.362,16.829 C61.353,17.043 61.322,17.276 61.270,17.526 C61.235,17.704 61.186,17.870 61.125,18.021 C61.063,18.173 60.988,18.329 60.901,18.490 C60.708,18.901 60.493,19.294 60.255,19.669 C60.018,20.044 59.785,20.419 59.557,20.794 C59.311,21.223 59.056,21.647 58.793,22.066 C58.568,22.425 58.353,22.779 58.140,23.131 C58.155,23.048 58.174,22.967 58.186,22.883 C58.222,22.634 58.243,22.294 58.253,21.865 C58.261,21.437 58.235,21.009 58.173,20.580 C58.112,20.151 57.993,19.767 57.818,19.428 C57.642,19.088 57.387,18.883 57.054,18.811 C56.790,18.740 56.623,18.811 56.553,19.026 C56.483,19.241 56.465,19.437 56.500,19.615 C56.606,20.240 56.662,20.825 56.671,21.370 C56.680,21.915 56.588,22.500 56.395,23.124 C56.254,23.571 56.087,24.045 55.894,24.544 C55.701,25.044 55.468,25.513 55.196,25.950 C54.923,26.388 54.599,26.768 54.221,27.089 C53.843,27.410 53.391,27.616 52.864,27.705 C52.407,27.777 51.955,27.782 51.507,27.718 C51.059,27.656 50.615,27.558 50.176,27.424 C49.737,27.290 49.302,27.138 48.872,26.969 C48.441,26.799 48.016,26.643 47.594,26.500 C47.506,26.464 47.387,26.433 47.238,26.406 C47.089,26.379 46.944,26.344 46.803,26.299 C46.663,26.255 46.540,26.196 46.435,26.125 C46.329,26.054 46.285,25.946 46.303,25.803 C46.320,25.625 46.426,25.455 46.619,25.295 C46.812,25.133 46.970,24.991 47.093,24.865 C47.392,24.562 47.668,24.232 47.923,23.875 C48.178,23.518 48.428,23.160 48.674,22.803 C49.078,22.231 49.465,21.642 49.834,21.035 C50.203,20.428 50.536,19.794 50.835,19.133 C50.941,18.883 51.037,18.624 51.125,18.356 C51.212,18.089 51.388,17.883 51.652,17.740 C52.109,17.490 52.587,17.249 53.088,17.017 C53.589,16.785 54.076,16.544 54.550,16.293 C55.552,15.794 56.504,15.191 57.409,14.485 C58.314,13.780 59.170,13.035 59.978,12.249 C60.382,11.838 60.769,11.418 61.138,10.990 C61.507,10.561 61.858,10.114 62.192,9.650 C62.438,9.346 62.666,9.034 62.877,8.713 C63.088,8.391 63.281,8.061 63.457,7.721 C63.650,7.329 63.808,6.864 63.931,6.328 C64.053,5.793 64.089,5.279 64.036,4.788 C63.983,4.297 63.812,3.863 63.522,3.489 C63.232,3.114 62.789,2.891 62.192,2.819 C61.278,2.730 60.352,2.869 59.412,3.234 C58.472,3.601 57.633,4.034 56.895,4.533 C55.894,5.194 54.963,5.979 54.102,6.891 C53.241,7.802 52.460,8.748 51.757,9.730 C51.318,10.319 50.914,10.927 50.545,11.552 C50.176,12.177 49.816,12.811 49.465,13.455 C49.289,13.775 49.122,14.097 48.964,14.419 C48.806,14.739 48.648,15.061 48.490,15.383 C48.367,15.633 48.239,15.887 48.108,16.146 C47.976,16.406 47.822,16.624 47.647,16.802 C47.471,16.981 47.260,17.110 47.014,17.191 C46.768,17.271 46.478,17.267 46.145,17.177 C45.424,16.981 44.810,16.659 44.300,16.213 C43.790,15.767 43.395,15.244 43.115,14.646 C42.833,14.048 42.662,13.405 42.601,12.717 C42.539,12.030 42.596,11.338 42.772,10.641 C42.912,10.035 43.145,9.449 43.470,8.887 C43.795,8.324 44.190,7.828 44.656,7.400 C45.121,6.971 45.644,6.627 46.224,6.369 C46.803,6.110 47.418,5.979 48.068,5.979 C48.191,5.979 48.398,6.011 48.688,6.074 C48.977,6.136 49.263,6.172 49.544,6.181 C49.825,6.190 50.058,6.154 50.242,6.074 C50.427,5.994 50.475,5.802 50.387,5.498 C50.299,5.230 50.141,5.047 49.913,4.948 C49.684,4.851 49.430,4.793 49.149,4.774 C48.867,4.757 48.586,4.766 48.305,4.801 C48.024,4.838 47.796,4.864 47.620,4.882 C46.672,5.025 45.767,5.311 44.906,5.739 C44.168,6.114 43.479,6.574 42.838,7.119 C42.196,7.663 41.647,8.275 41.191,8.953 C40.840,9.472 40.532,10.057 40.269,10.709 C40.005,11.360 39.874,12.007 39.874,12.650 C39.874,13.490 39.992,14.284 40.229,15.034 C40.466,15.784 40.910,16.445 41.560,17.017 C41.911,17.338 42.306,17.606 42.745,17.820 C43.185,18.035 43.642,18.205 44.116,18.329 C44.555,18.436 44.998,18.486 45.447,18.477 C45.895,18.468 46.329,18.508 46.751,18.597 C46.768,18.597 46.716,18.736 46.593,19.012 C46.470,19.290 46.329,19.598 46.171,19.937 C46.013,20.276 45.864,20.598 45.723,20.901 C45.582,21.205 45.503,21.383 45.486,21.437 C45.205,22.008 44.911,22.575 44.603,23.138 C44.296,23.700 43.914,24.214 43.457,24.678 C43.246,24.892 43.022,24.995 42.785,24.986 C42.548,24.977 42.288,24.946 42.008,24.892 C41.376,24.785 40.717,24.732 40.032,24.732 C39.346,24.732 38.688,24.776 38.055,24.865 C37.651,24.920 37.260,24.964 36.883,25.000 C36.505,25.036 36.114,25.125 35.710,25.268 C35.359,25.393 35.020,25.554 34.696,25.750 C34.370,25.946 34.107,26.178 33.905,26.446 C33.703,26.714 33.589,27.009 33.563,27.330 C33.536,27.652 33.655,28.009 33.918,28.402 C34.252,28.884 34.678,29.183 35.196,29.299 C35.714,29.416 36.237,29.500 36.764,29.554 C37.239,29.589 37.695,29.594 38.134,29.567 C38.573,29.540 39.021,29.482 39.478,29.393 C39.970,29.286 40.449,29.161 40.914,29.018 C41.380,28.876 41.832,28.696 42.271,28.482 C42.675,28.286 43.057,28.134 43.417,28.026 C43.777,27.919 44.186,27.938 44.643,28.081 C45.205,28.277 45.745,28.482 46.263,28.696 C46.781,28.911 47.330,29.063 47.910,29.152 C48.367,29.223 48.836,29.315 49.320,29.377 C49.803,29.440 50.282,29.495 50.756,29.495 L50.782,29.495 C51.784,29.495 52.745,29.221 53.668,28.828 C54.590,28.435 55.402,27.869 56.105,27.155 C56.216,27.033 56.318,26.900 56.421,26.773 C56.410,26.827 56.392,26.877 56.382,26.931 C56.303,27.360 56.316,27.797 56.422,28.243 C56.456,28.422 56.531,28.617 56.646,28.831 C56.760,29.045 56.896,29.197 57.054,29.286 C57.142,29.340 57.225,29.385 57.304,29.420 C57.383,29.456 57.467,29.491 57.554,29.527 C57.748,29.598 57.963,29.630 58.200,29.621 C58.437,29.611 58.652,29.589 58.846,29.554 C59.179,29.482 59.487,29.344 59.768,29.138 C60.049,28.933 60.321,28.733 60.585,28.536 C61.059,28.160 61.533,27.714 62.008,27.196 C62.166,27.053 62.319,26.897 62.469,26.727 C62.618,26.558 62.728,26.437 62.798,26.366 C62.956,26.170 63.044,26.084 63.062,26.112 C63.079,26.138 63.053,26.312 62.983,26.633 C62.894,26.973 62.846,27.366 62.838,27.812 C62.829,28.259 62.938,28.625 63.167,28.911 C63.413,29.232 63.747,29.429 64.168,29.500 C64.590,29.572 64.976,29.563 65.328,29.473 C65.855,29.331 66.338,29.072 66.777,28.696 C67.038,28.474 67.278,28.242 67.508,28.007 C67.507,28.019 67.503,28.029 67.502,28.040 C67.475,28.353 67.532,28.652 67.673,28.938 C67.866,29.277 68.173,29.436 68.595,29.525 C68.683,29.543 68.771,29.495 68.859,29.495 C68.947,29.495 69.034,29.495 69.122,29.495 C69.421,29.495 69.706,29.467 69.978,29.350 C70.251,29.235 70.510,29.116 70.756,28.936 C70.984,28.776 71.195,28.607 71.388,28.402 C71.581,28.196 71.774,27.993 71.968,27.778 C72.126,27.582 72.288,27.398 72.455,27.219 C72.622,27.041 72.785,26.855 72.943,26.659 C72.978,26.623 73.000,26.592 73.009,26.566 C73.018,26.539 73.039,26.544 73.075,26.580 C73.127,26.616 73.167,26.696 73.193,26.821 C73.219,26.946 73.242,27.035 73.259,27.089 C73.382,27.518 73.553,27.924 73.773,28.308 C73.993,28.692 74.304,29.000 74.708,29.232 C74.901,29.339 75.108,29.410 75.328,29.446 C75.547,29.482 75.762,29.482 75.973,29.446 C76.166,29.429 76.382,29.388 76.619,29.326 C76.856,29.263 77.071,29.170 77.264,29.045 C77.598,28.848 77.923,28.612 78.239,28.334 C78.555,28.058 78.836,27.759 79.082,27.437 C79.188,27.295 79.306,27.161 79.438,27.036 C79.570,26.911 79.697,26.777 79.820,26.633 C80.033,26.353 80.236,26.082 80.441,25.808 C80.397,26.010 80.359,26.214 80.334,26.419 C80.273,26.938 80.299,27.433 80.413,27.906 C80.502,28.272 80.685,28.592 80.957,28.867 C81.305,29.533 82.009,29.689 82.694,29.650 C83.051,29.679 83.402,29.643 83.747,29.527 C84.061,29.421 84.367,29.281 84.666,29.114 C89.359,26.775 92.309,20.115 93.003,19.342 C93.179,19.215 93.358,19.117 93.470,19.133 C93.645,19.169 93.812,19.231 93.971,19.321 C94.129,19.410 94.295,19.454 94.471,19.454 C94.524,19.454 94.599,19.446 94.695,19.428 C94.792,19.410 94.879,19.401 94.959,19.401 C95.038,19.401 95.099,19.414 95.143,19.441 C95.187,19.468 95.183,19.535 95.130,19.642 C95.077,19.785 94.941,19.937 94.722,20.098 C94.502,20.258 94.339,20.392 94.234,20.499 C93.619,21.125 93.004,21.785 92.390,22.482 C91.774,23.178 91.274,23.928 90.888,24.732 C90.747,25.000 90.615,25.286 90.492,25.589 C90.369,25.893 90.264,26.196 90.176,26.500 C90.088,26.804 90.035,27.112 90.018,27.424 C90.000,27.737 90.035,28.053 90.124,28.375 C90.194,28.643 90.312,28.862 90.479,29.031 C90.646,29.201 90.835,29.331 91.046,29.420 C91.256,29.510 91.489,29.563 91.744,29.580 C91.998,29.598 92.249,29.589 92.495,29.554 C93.215,29.410 93.852,29.112 94.405,28.656 C94.959,28.201 95.463,27.705 95.920,27.170 C96.131,26.919 96.342,26.656 96.553,26.379 C96.748,26.123 96.933,25.871 97.114,25.623 C97.065,25.848 97.027,26.069 97.000,26.285 C96.965,26.571 96.952,26.879 96.961,27.210 C96.969,27.540 97.018,27.857 97.106,28.160 C97.193,28.464 97.330,28.737 97.514,28.978 C97.699,29.219 97.949,29.393 98.265,29.500 L98.318,29.527 C98.722,29.634 99.143,29.630 99.582,29.513 C100.022,29.397 100.417,29.232 100.768,29.018 C101.454,28.625 102.068,28.134 102.613,27.544 C102.736,27.401 102.854,27.268 102.969,27.142 C103.083,27.018 103.210,26.893 103.351,26.768 C103.420,26.697 103.496,26.611 103.575,26.514 C103.654,26.415 103.737,26.357 103.825,26.340 C103.842,26.429 103.834,26.518 103.799,26.607 C103.763,26.697 103.728,26.786 103.693,26.874 C103.605,27.268 103.601,27.669 103.680,28.081 C103.759,28.491 103.948,28.840 104.247,29.125 C104.563,29.446 104.914,29.598 105.301,29.580 C105.687,29.563 106.073,29.460 106.460,29.272 C106.846,29.085 107.211,28.844 107.554,28.549 C107.896,28.254 108.181,27.983 108.410,27.732 C108.743,27.375 109.073,27.013 109.398,26.647 C109.723,26.281 110.044,25.910 110.360,25.536 C110.496,25.379 110.629,25.222 110.757,25.066 C110.590,25.582 110.470,26.099 110.399,26.621 C110.303,27.326 110.369,27.964 110.597,28.536 C110.825,29.107 111.326,29.465 112.099,29.607 C112.450,29.643 112.775,29.634 113.074,29.580 C113.495,29.510 113.878,29.379 114.220,29.192 C114.562,29.005 114.887,28.781 115.195,28.523 C115.502,28.264 115.792,27.986 116.064,27.692 C116.337,27.397 116.605,27.098 116.868,26.794 C116.956,26.705 117.035,26.621 117.105,26.540 C117.175,26.459 117.219,26.401 117.237,26.366 C117.272,26.295 117.316,26.258 117.369,26.258 C117.333,26.527 117.307,26.741 117.290,26.902 C117.272,27.062 117.254,27.219 117.237,27.371 C117.219,27.523 117.211,27.616 117.211,27.652 C117.211,27.902 117.246,28.152 117.316,28.402 C117.386,28.652 117.509,28.866 117.685,29.045 C117.931,29.296 118.229,29.429 118.581,29.446 C118.932,29.465 119.257,29.446 119.556,29.393 C119.819,29.339 120.061,29.255 120.280,29.138 C120.500,29.022 120.706,28.876 120.900,28.696 C121.708,28.000 122.481,27.254 123.219,26.459 C123.511,26.145 123.791,25.821 124.070,25.496 C123.987,25.853 123.935,26.210 123.917,26.566 C123.890,27.093 123.965,27.589 124.141,28.053 C124.316,28.518 124.659,28.902 125.168,29.205 C125.532,29.424 125.927,29.503 126.354,29.547 C126.754,29.642 127.201,29.885 127.605,29.495 C127.605,29.495 127.605,29.495 127.605,29.495 C127.606,29.495 127.606,29.495 127.607,29.495 C127.785,29.495 127.956,29.476 128.109,29.434 C128.156,29.422 128.203,29.432 128.250,29.418 C128.422,29.368 128.566,29.331 128.670,29.292 C128.688,29.285 128.707,29.287 128.726,29.279 C128.740,29.274 128.753,29.270 128.767,29.264 C128.821,29.243 128.852,29.230 128.852,29.230 C128.877,29.219 128.902,29.206 128.926,29.195 C129.549,28.921 130.121,28.580 130.636,28.160 C130.643,28.155 130.646,28.150 130.652,28.144 C134.438,25.312 136.815,20.025 137.429,19.342 C137.604,19.214 137.784,19.117 137.895,19.133 C138.071,19.169 138.238,19.231 138.396,19.321 C138.554,19.410 138.721,19.454 138.896,19.454 C138.949,19.454 139.024,19.446 139.120,19.428 C139.217,19.410 139.305,19.401 139.384,19.401 C139.463,19.401 139.524,19.414 139.568,19.441 C139.612,19.468 139.608,19.535 139.555,19.642 C139.503,19.785 139.366,19.937 139.147,20.098 C138.927,20.258 138.765,20.392 138.659,20.499 C138.044,21.125 137.430,21.785 136.815,22.482 C136.200,23.178 135.699,23.928 135.313,24.732 C135.172,25.000 135.040,25.286 134.918,25.589 C134.795,25.893 134.689,26.196 134.601,26.500 C134.513,26.804 134.461,27.112 134.444,27.424 C134.426,27.737 134.461,28.053 134.549,28.375 C134.619,28.643 134.738,28.862 134.905,29.031 C135.071,29.201 135.260,29.331 135.471,29.420 C135.682,29.510 135.914,29.563 136.169,29.580 C136.424,29.598 136.674,29.589 136.920,29.554 C137.641,29.410 138.277,29.112 138.831,28.656 C139.384,28.201 139.889,27.705 140.346,27.170 C140.557,26.919 140.767,26.656 140.978,26.379 C141.189,26.103 141.391,25.830 141.584,25.562 C141.830,25.258 142.076,24.950 142.322,24.638 C142.568,24.325 142.814,24.009 143.060,23.687 C143.113,23.634 143.213,23.509 143.363,23.312 C143.512,23.116 143.648,22.906 143.771,22.682 C143.894,22.460 143.969,22.254 143.995,22.066 C144.022,21.879 143.929,21.776 143.718,21.758 ZM128.581,21.892 C128.677,21.696 128.783,21.508 128.897,21.329 C129.011,21.151 129.086,21.035 129.121,20.981 C129.367,20.606 129.622,20.245 129.885,19.896 C130.149,19.548 130.421,19.196 130.702,18.838 C130.790,18.731 130.886,18.620 130.992,18.504 C131.097,18.388 131.202,18.267 131.308,18.142 C131.448,17.999 131.624,17.825 131.835,17.619 C132.046,17.415 132.256,17.285 132.467,17.231 C132.625,17.196 132.753,17.244 132.849,17.378 C132.946,17.512 132.985,17.651 132.968,17.794 C132.950,18.151 132.845,18.499 132.652,18.838 C132.458,19.178 132.256,19.482 132.046,19.749 C131.694,20.214 131.295,20.660 130.847,21.088 C130.399,21.517 129.920,21.883 129.411,22.187 C129.375,22.204 129.275,22.259 129.108,22.347 C128.940,22.437 128.787,22.500 128.647,22.535 C128.471,22.571 128.392,22.522 128.409,22.388 C128.427,22.254 128.484,22.089 128.581,21.892 ZM52.811,15.409 C53.145,14.785 53.466,14.150 53.773,13.507 C54.080,12.865 54.392,12.231 54.709,11.606 C55.077,10.855 55.463,10.137 55.868,9.449 C56.272,8.762 56.693,8.069 57.133,7.373 C57.484,6.820 57.853,6.275 58.239,5.739 C58.626,5.203 59.091,4.748 59.636,4.373 C59.741,4.301 59.921,4.190 60.176,4.038 C60.431,3.886 60.694,3.761 60.966,3.663 C61.239,3.564 61.489,3.524 61.717,3.542 C61.946,3.560 62.104,3.686 62.192,3.918 C62.314,4.238 62.341,4.600 62.271,5.002 C62.201,5.404 62.077,5.802 61.902,6.194 C61.726,6.587 61.533,6.962 61.322,7.319 C61.112,7.677 60.918,7.989 60.742,8.257 C60.268,8.990 59.750,9.708 59.188,10.413 C58.626,11.119 58.020,11.793 57.370,12.436 C56.720,13.079 56.039,13.673 55.328,14.217 C54.616,14.762 53.874,15.232 53.101,15.624 C52.960,15.695 52.855,15.727 52.785,15.717 C52.714,15.709 52.723,15.606 52.811,15.409 ZM40.585,27.142 C40.339,27.500 40.009,27.804 39.597,28.053 C39.184,28.303 38.740,28.473 38.266,28.563 C37.774,28.652 37.291,28.652 36.817,28.563 C36.343,28.473 35.938,28.250 35.605,27.893 C35.447,27.732 35.341,27.513 35.289,27.237 C35.236,26.960 35.280,26.723 35.420,26.527 C35.526,26.366 35.675,26.241 35.868,26.151 C36.061,26.062 36.268,26.000 36.488,25.965 C36.707,25.928 36.926,25.919 37.146,25.937 C37.366,25.955 37.563,25.973 37.739,25.991 C37.845,26.009 38.073,26.044 38.424,26.098 C38.775,26.151 39.131,26.223 39.491,26.312 C39.851,26.401 40.154,26.518 40.400,26.661 C40.646,26.804 40.707,26.964 40.585,27.142 ZM73.807,19.937 C73.807,19.973 73.735,20.008 73.718,20.044 C73.560,20.723 73.405,21.414 73.317,22.119 C73.229,22.825 73.169,23.536 73.169,24.250 C73.169,24.464 73.153,24.674 73.136,24.879 C73.118,25.084 73.043,25.286 72.921,25.482 C72.815,25.678 72.685,25.853 72.536,26.004 C72.387,26.156 72.241,26.303 72.101,26.446 C71.960,26.589 71.814,26.732 71.665,26.874 C71.516,27.018 71.353,27.152 71.178,27.277 C71.125,27.312 71.037,27.375 70.914,27.464 C70.791,27.554 70.668,27.625 70.545,27.678 C70.422,27.732 70.312,27.750 70.216,27.732 C70.119,27.714 70.062,27.625 70.045,27.464 C70.045,27.375 70.053,27.290 70.071,27.210 C70.088,27.129 70.088,27.045 70.071,26.955 C70.035,26.794 69.961,26.638 69.847,26.486 C69.732,26.334 69.587,26.250 69.412,26.232 C69.297,26.219 69.179,26.225 69.059,26.240 C69.084,26.210 69.111,26.182 69.135,26.151 C69.513,25.687 69.886,25.223 70.255,24.759 C70.448,24.526 70.628,24.303 70.795,24.089 C70.962,23.875 71.116,23.643 71.256,23.392 C71.309,23.321 71.375,23.231 71.454,23.124 C71.533,23.017 71.603,22.901 71.665,22.776 C71.683,22.738 71.696,22.703 71.710,22.665 C71.871,22.445 72.011,22.256 72.126,22.107 C72.301,21.875 72.459,21.642 72.601,21.410 C72.741,21.178 72.881,20.937 73.022,20.687 C73.110,20.544 73.265,20.388 73.362,20.218 C73.458,20.048 73.807,19.919 73.807,19.830 L73.807,19.937 ZM104.694,23.406 C104.185,24.147 103.649,24.875 103.087,25.589 C102.753,26.000 102.398,26.388 102.020,26.754 C101.642,27.120 101.216,27.420 100.742,27.652 C100.461,27.777 100.206,27.817 99.978,27.772 C99.749,27.728 99.565,27.554 99.425,27.250 C99.336,27.072 99.306,26.879 99.332,26.674 C99.359,26.469 99.407,26.258 99.477,26.044 C99.547,25.830 99.631,25.625 99.728,25.428 C99.824,25.232 99.908,25.053 99.978,24.892 C100.171,24.518 100.364,24.151 100.557,23.794 C100.750,23.438 100.961,23.089 101.190,22.750 C101.418,22.410 101.638,22.071 101.849,21.732 C102.060,21.392 102.288,21.062 102.534,20.740 C102.956,20.151 103.416,19.543 103.917,18.919 C104.418,18.293 104.984,17.803 105.617,17.445 C105.845,17.321 106.117,17.222 106.433,17.151 C106.750,17.079 107.004,17.168 107.198,17.418 C107.356,17.633 107.413,17.874 107.369,18.142 C107.325,18.409 107.268,18.660 107.198,18.892 C107.057,19.285 106.890,19.660 106.697,20.017 C106.504,20.374 106.310,20.732 106.117,21.088 C105.678,21.892 105.204,22.665 104.694,23.406 ZM119.279,20.901 C119.130,21.169 118.994,21.410 118.871,21.624 C118.467,22.374 118.018,23.089 117.527,23.768 C117.035,24.446 116.526,25.107 115.999,25.750 C115.612,26.215 115.212,26.608 114.800,27.045 C114.387,27.483 113.899,27.938 113.337,27.938 L113.311,27.938 C112.907,28.328 112.542,28.126 112.217,27.902 C111.892,27.679 111.756,27.356 111.809,26.873 C111.862,26.194 112.050,25.574 112.376,24.985 C112.700,24.395 113.047,23.850 113.416,23.331 C113.838,22.743 114.264,22.161 114.694,21.580 C115.124,21.001 115.586,20.435 116.078,19.881 C116.253,19.685 116.464,19.449 116.710,19.173 C116.956,18.896 117.219,18.633 117.500,18.383 C117.781,18.133 118.076,17.923 118.383,17.753 C118.691,17.584 118.994,17.508 119.292,17.526 C119.503,17.561 119.683,17.664 119.832,17.833 C119.982,18.004 120.065,18.187 120.083,18.383 C120.100,18.651 120.070,18.928 119.991,19.213 C119.912,19.499 119.810,19.785 119.688,20.071 C119.565,20.356 119.428,20.633 119.279,20.901 Z"/>
<g filter="url(#Filter_2)">
<g filter="url(#Filter_3)">
<path fill-rule="evenodd"  fill="rgb(187, 156, 102)"
 d="M0.294,9.213 C0.384,9.138 0.479,9.101 0.577,9.096 C0.464,8.505 0.580,8.115 0.859,7.886 C1.208,7.599 1.621,7.858 2.218,8.537 L2.237,8.522 C2.232,8.527 2.223,8.523 2.247,8.554 C2.433,8.787 2.696,8.832 2.928,8.641 C3.088,8.509 3.146,8.260 3.041,8.129 L2.808,7.840 C2.470,7.418 2.790,6.897 3.212,6.551 L8.164,2.482 C8.585,2.137 8.807,2.214 9.145,2.635 L9.433,2.994 C9.506,3.085 9.867,2.886 9.997,2.780 C10.228,2.590 10.378,2.259 10.191,2.026 C10.167,1.997 10.233,1.953 10.227,1.958 L10.244,1.944 C9.709,1.213 9.542,0.752 9.892,0.465 C10.170,0.236 10.597,0.233 11.145,0.465 C11.170,0.369 11.213,0.268 11.303,0.193 C12.040,-0.413 13.893,0.659 15.449,2.597 C17.004,4.533 17.665,6.590 16.927,7.197 C16.836,7.271 16.741,7.307 16.643,7.312 C16.755,7.903 16.696,8.364 16.416,8.593 C16.054,8.890 15.645,8.626 15.053,7.942 L15.037,7.956 C14.998,7.988 14.432,7.886 14.230,8.052 C14.101,8.158 13.827,8.466 13.900,8.556 L14.202,8.933 C14.404,9.184 14.581,9.406 14.505,9.700 C14.387,9.232 12.968,7.311 11.657,5.678 C10.208,3.874 9.121,2.787 9.121,2.787 C9.011,3.010 10.280,4.527 11.380,5.896 C12.443,7.220 14.326,9.763 14.633,9.772 C14.573,9.928 14.532,10.127 14.394,10.239 L13.441,11.022 C13.547,10.935 13.689,10.937 13.773,11.042 C13.858,11.147 13.830,11.289 13.725,11.375 L13.613,11.467 C13.685,11.408 13.985,11.699 14.148,11.902 C14.890,12.826 15.263,14.009 15.264,14.903 C15.147,14.695 14.890,14.192 14.730,13.480 C14.514,12.522 13.896,11.357 13.451,11.723 C13.007,12.088 14.078,12.733 14.338,13.550 C14.551,14.216 15.065,14.754 15.246,14.931 C15.246,15.007 15.241,15.081 15.234,15.152 C15.745,14.883 16.194,14.821 16.367,15.036 C16.494,15.195 16.445,15.470 16.266,15.783 C16.704,15.824 17.126,16.035 17.422,16.403 C17.927,17.032 18.521,18.885 19.962,20.679 C21.447,22.529 26.109,27.222 27.018,28.354 C28.060,29.651 28.321,31.183 27.601,31.774 L27.570,31.796 C26.850,32.387 25.420,31.813 24.378,30.515 C23.469,29.383 19.880,23.802 18.395,21.952 C16.953,20.158 15.290,19.198 14.785,18.569 C14.490,18.202 14.372,17.741 14.421,17.298 C14.082,17.411 13.805,17.403 13.678,17.245 C13.506,17.030 13.657,16.598 14.023,16.147 C13.126,16.051 11.920,15.427 11.100,14.406 C10.938,14.203 10.717,13.846 10.789,13.787 L10.677,13.879 C10.571,13.966 10.415,13.947 10.331,13.842 C10.247,13.736 10.261,13.578 10.366,13.492 L9.361,14.317 C8.940,14.663 8.204,14.559 7.866,14.138 L7.620,13.832 C7.516,13.702 7.294,13.749 7.135,13.879 C6.933,14.045 7.092,14.484 7.051,14.517 L7.035,14.530 C7.577,15.256 7.747,15.714 7.384,16.012 C7.106,16.240 6.650,16.208 6.101,15.975 C6.077,16.072 6.019,16.155 5.929,16.230 C5.191,16.836 3.332,15.755 1.776,13.818 C0.220,11.881 -0.444,9.819 0.294,9.213 ZM17.064,5.790 C17.064,5.790 16.120,4.057 14.952,2.537 C13.783,1.015 12.658,0.303 12.658,0.303 C14.753,2.224 17.064,5.790 17.064,5.790 ZM12.244,2.042 C12.624,1.783 13.085,2.540 14.193,3.595 L14.193,3.595 C15.532,5.285 16.860,7.138 16.841,7.054 C16.822,6.965 15.527,4.597 14.275,3.039 C13.024,1.480 11.547,0.134 11.547,0.134 C11.471,0.140 11.462,0.197 11.505,0.294 C11.385,0.280 11.364,0.422 11.272,0.545 C11.053,0.836 11.065,1.929 11.065,1.929 C11.245,2.546 11.865,2.301 12.244,2.042 ZM12.060,3.725 C12.148,3.652 11.967,3.280 11.657,2.894 C11.346,2.508 11.024,2.253 10.936,2.325 C10.848,2.397 11.029,2.769 11.339,3.156 C11.649,3.542 11.972,3.796 12.060,3.725 ZM11.284,4.071 C11.425,3.956 11.375,3.660 11.174,3.409 C10.973,3.159 10.697,3.049 10.556,3.165 C10.416,3.280 10.465,3.576 10.667,3.827 C10.868,4.077 11.144,4.187 11.284,4.071 ZM16.093,15.346 C15.943,15.158 15.732,15.079 15.621,15.170 C15.511,15.261 15.544,15.486 15.695,15.674 C15.846,15.862 16.057,15.940 16.167,15.850 C16.277,15.759 16.244,15.534 16.093,15.346 ZM17.401,18.578 C18.783,20.134 20.168,21.399 23.252,25.568 C26.336,29.738 26.981,30.555 27.381,30.226 C27.782,29.897 26.364,28.106 25.405,26.941 C24.446,25.775 23.731,25.386 21.330,22.555 C18.928,19.724 17.483,18.035 17.236,17.182 C16.991,16.328 16.742,16.110 16.407,16.149 C15.963,16.198 16.019,17.021 17.401,18.578 ZM9.333,13.566 C9.333,13.566 9.542,13.711 11.687,11.949 C13.788,10.223 13.503,10.141 13.503,10.141 C13.225,10.204 12.858,10.169 12.667,9.931 C12.399,9.597 8.185,4.350 7.916,4.016 C7.669,3.708 7.816,3.171 8.081,2.889 C8.052,2.908 8.078,2.878 8.051,2.900 C8.051,2.900 7.878,2.726 5.727,4.493 C3.470,6.348 3.643,6.522 3.643,6.522 C3.616,6.544 3.513,6.638 3.489,6.662 C3.818,6.457 4.150,6.600 4.397,6.908 C4.665,7.242 8.878,12.489 9.147,12.823 C9.338,13.060 9.452,13.303 9.333,13.566 ZM9.128,14.210 C9.239,13.987 7.984,12.457 6.884,11.088 C5.785,9.720 3.869,7.103 3.661,7.272 C3.455,7.442 5.112,9.538 6.562,11.342 C8.011,13.148 9.128,14.210 9.128,14.210 ZM4.316,9.797 C4.447,9.689 4.391,9.398 4.190,9.149 C3.989,8.898 3.719,8.782 3.588,8.890 C3.456,8.998 3.513,9.288 3.714,9.539 C3.915,9.789 4.185,9.905 4.316,9.797 ZM2.980,11.184 C2.890,10.941 1.887,9.812 2.089,9.594 C2.202,9.471 2.319,9.565 2.449,9.730 C2.478,9.768 2.506,9.806 2.536,9.846 C2.613,9.952 2.695,10.073 2.785,10.184 C2.812,10.216 2.836,10.241 2.858,10.264 C3.125,10.604 3.416,10.968 3.693,11.315 C4.607,12.453 5.303,13.130 5.303,13.130 C5.363,12.996 4.519,12.076 3.826,11.212 C3.502,10.808 3.013,10.277 2.623,9.791 C2.623,9.791 2.622,9.791 2.622,9.790 C2.622,9.790 2.112,8.876 1.841,8.808 C1.823,8.799 1.835,8.773 1.827,8.780 C1.575,8.802 1.192,9.249 1.869,10.091 C2.546,10.934 3.069,11.427 2.980,11.184 Z"/>
</g></g>
<path fill="url(#PSgrad_0)"
 d="M0.294,9.213 C0.384,9.138 0.479,9.101 0.577,9.096 C0.464,8.505 0.580,8.115 0.859,7.886 C1.208,7.599 1.621,7.858 2.218,8.537 L2.237,8.522 C2.232,8.527 2.223,8.523 2.247,8.554 C2.433,8.787 2.696,8.832 2.928,8.641 C3.088,8.509 3.146,8.260 3.041,8.129 L2.808,7.840 C2.470,7.418 2.790,6.897 3.212,6.551 L8.164,2.482 C8.585,2.137 8.807,2.214 9.145,2.635 L9.433,2.994 C9.506,3.085 9.867,2.886 9.997,2.780 C10.228,2.590 10.378,2.259 10.191,2.026 C10.167,1.997 10.233,1.953 10.227,1.958 L10.244,1.944 C9.709,1.213 9.542,0.752 9.892,0.465 C10.170,0.236 10.597,0.233 11.145,0.465 C11.170,0.369 11.213,0.268 11.303,0.193 C12.040,-0.413 13.893,0.659 15.449,2.597 C17.004,4.533 17.665,6.590 16.927,7.197 C16.836,7.271 16.741,7.307 16.643,7.312 C16.755,7.903 16.696,8.364 16.416,8.593 C16.054,8.890 15.645,8.626 15.053,7.942 L15.037,7.956 C14.998,7.988 14.432,7.886 14.230,8.052 C14.101,8.158 13.827,8.466 13.900,8.556 L14.202,8.933 C14.404,9.184 14.581,9.406 14.505,9.700 C14.387,9.232 12.968,7.311 11.657,5.678 C10.208,3.874 9.121,2.787 9.121,2.787 C9.011,3.010 10.280,4.527 11.380,5.896 C12.443,7.220 14.326,9.763 14.633,9.772 C14.573,9.928 14.532,10.127 14.394,10.239 L13.441,11.022 C13.547,10.935 13.689,10.937 13.773,11.042 C13.858,11.147 13.830,11.289 13.725,11.375 L13.613,11.467 C13.685,11.408 13.985,11.699 14.148,11.902 C14.890,12.826 15.263,14.009 15.264,14.903 C15.147,14.695 14.890,14.192 14.730,13.480 C14.514,12.522 13.896,11.357 13.451,11.723 C13.007,12.088 14.078,12.733 14.338,13.550 C14.551,14.216 15.065,14.754 15.246,14.931 C15.246,15.007 15.241,15.081 15.234,15.152 C15.745,14.883 16.194,14.821 16.367,15.036 C16.494,15.195 16.445,15.470 16.266,15.783 C16.704,15.824 17.126,16.035 17.422,16.403 C17.927,17.032 18.521,18.885 19.962,20.679 C21.447,22.529 26.109,27.222 27.018,28.354 C28.060,29.651 28.321,31.183 27.601,31.774 L27.570,31.796 C26.850,32.387 25.420,31.813 24.378,30.515 C23.469,29.383 19.880,23.802 18.395,21.952 C16.953,20.158 15.290,19.198 14.785,18.569 C14.490,18.202 14.372,17.741 14.421,17.298 C14.082,17.411 13.805,17.403 13.678,17.245 C13.506,17.030 13.657,16.598 14.023,16.147 C13.126,16.051 11.920,15.427 11.100,14.406 C10.938,14.203 10.717,13.846 10.789,13.787 L10.677,13.879 C10.571,13.966 10.415,13.947 10.331,13.842 C10.247,13.736 10.261,13.578 10.366,13.492 L9.361,14.317 C8.940,14.663 8.204,14.559 7.866,14.138 L7.620,13.832 C7.516,13.702 7.294,13.749 7.135,13.879 C6.933,14.045 7.092,14.484 7.051,14.517 L7.035,14.530 C7.577,15.256 7.747,15.714 7.384,16.012 C7.106,16.240 6.650,16.208 6.101,15.975 C6.077,16.072 6.019,16.155 5.929,16.230 C5.191,16.836 3.332,15.755 1.776,13.818 C0.220,11.881 -0.444,9.819 0.294,9.213 ZM17.064,5.790 C17.064,5.790 16.120,4.057 14.952,2.537 C13.783,1.015 12.658,0.303 12.658,0.303 C14.753,2.224 17.064,5.790 17.064,5.790 ZM12.244,2.042 C12.624,1.783 13.085,2.540 14.193,3.595 L14.193,3.595 C15.532,5.285 16.860,7.138 16.841,7.054 C16.822,6.965 15.527,4.597 14.275,3.039 C13.024,1.480 11.547,0.134 11.547,0.134 C11.471,0.140 11.462,0.197 11.505,0.294 C11.385,0.280 11.364,0.422 11.272,0.545 C11.053,0.836 11.065,1.929 11.065,1.929 C11.245,2.546 11.865,2.301 12.244,2.042 ZM12.060,3.725 C12.148,3.652 11.967,3.280 11.657,2.894 C11.346,2.508 11.024,2.253 10.936,2.325 C10.848,2.397 11.029,2.769 11.339,3.156 C11.649,3.542 11.972,3.796 12.060,3.725 ZM11.284,4.071 C11.425,3.956 11.375,3.660 11.174,3.409 C10.973,3.159 10.697,3.049 10.556,3.165 C10.416,3.280 10.465,3.576 10.667,3.827 C10.868,4.077 11.144,4.187 11.284,4.071 ZM16.093,15.346 C15.943,15.158 15.732,15.079 15.621,15.170 C15.511,15.261 15.544,15.486 15.695,15.674 C15.846,15.862 16.057,15.940 16.167,15.850 C16.277,15.759 16.244,15.534 16.093,15.346 ZM17.401,18.578 C18.783,20.134 20.168,21.399 23.252,25.568 C26.336,29.738 26.981,30.555 27.381,30.226 C27.782,29.897 26.364,28.106 25.405,26.941 C24.446,25.775 23.731,25.386 21.330,22.555 C18.928,19.724 17.483,18.035 17.236,17.182 C16.991,16.328 16.742,16.110 16.407,16.149 C15.963,16.198 16.019,17.021 17.401,18.578 ZM9.333,13.566 C9.333,13.566 9.542,13.711 11.687,11.949 C13.788,10.223 13.503,10.141 13.503,10.141 C13.225,10.204 12.858,10.169 12.667,9.931 C12.399,9.597 8.185,4.350 7.916,4.016 C7.669,3.708 7.816,3.171 8.081,2.889 C8.052,2.908 8.078,2.878 8.051,2.900 C8.051,2.900 7.878,2.726 5.727,4.493 C3.470,6.348 3.643,6.522 3.643,6.522 C3.616,6.544 3.513,6.638 3.489,6.662 C3.818,6.457 4.150,6.600 4.397,6.908 C4.665,7.242 8.878,12.489 9.147,12.823 C9.338,13.060 9.452,13.303 9.333,13.566 ZM9.128,14.210 C9.239,13.987 7.984,12.457 6.884,11.088 C5.785,9.720 3.869,7.103 3.661,7.272 C3.455,7.442 5.112,9.538 6.562,11.342 C8.011,13.148 9.128,14.210 9.128,14.210 ZM4.316,9.797 C4.447,9.689 4.391,9.398 4.190,9.149 C3.989,8.898 3.719,8.782 3.588,8.890 C3.456,8.998 3.513,9.288 3.714,9.539 C3.915,9.789 4.185,9.905 4.316,9.797 ZM2.980,11.184 C2.890,10.941 1.887,9.812 2.089,9.594 C2.202,9.471 2.319,9.565 2.449,9.730 C2.478,9.768 2.506,9.806 2.536,9.846 C2.613,9.952 2.695,10.073 2.785,10.184 C2.812,10.216 2.836,10.241 2.858,10.264 C3.125,10.604 3.416,10.968 3.693,11.315 C4.607,12.453 5.303,13.130 5.303,13.130 C5.363,12.996 4.519,12.076 3.826,11.212 C3.502,10.808 3.013,10.277 2.623,9.791 C2.623,9.791 2.622,9.791 2.622,9.790 C2.622,9.790 2.112,8.876 1.841,8.808 C1.823,8.799 1.835,8.773 1.827,8.780 C1.575,8.802 1.192,9.249 1.869,10.091 C2.546,10.934 3.069,11.427 2.980,11.184 Z"/>
</svg>